<?xml version="1.0" encoding="UTF-8"?>
<svg width="12px" height="16px" viewBox="0 0 12 16" version="1.1" xmlns="http://www.w3.org/2000/svg" xmlns:xlink="http://www.w3.org/1999/xlink">
    <!-- Generator: Sketch 51.1 (57501) - http://www.bohemiancoding.com/sketch -->
    <title>铜牌</title>
    <desc>Created with Sketch.</desc>
    <defs></defs>
    <g id="首页v0.3" stroke="none" stroke-width="1" fill="none" fill-rule="evenodd">
        <g id="业务管理" transform="translate(-305.000000, -712.000000)" fill-rule="nonzero">
            <g id="铜牌" transform="translate(305.000000, 712.000000)">
                <path d="M6,3.17647059 C2.68603667,3.17647059 0,5.86250726 0,9.17647059 C0,12.4904339 2.68603667,15.1764706 6,15.1764706 C9.31396333,15.1764706 12,12.4904339 12,9.17647059 C12,5.86419978 9.31396333,3.17647059 6,3.17647059" id="Shape" fill="#C58137"></path>
                <path d="M8.95012063,8.93997988 L7.81965276,10.0940107 L8.08694712,11.7229303 C8.17718025,12.2693078 7.87753816,12.5093053 7.39913233,12.2454782 L5.9996676,11.4761243 L4.60190537,12.2454782 C4.1320121,12.504199 3.82215495,12.2812225 3.91409059,11.7229303 L4.18138495,10.0940107 L3.04921457,8.94168199 C2.66955443,8.55530294 2.77681267,8.17743443 3.31140139,8.09573313 L4.87430727,7.85743768 L5.57403964,6.37660166 C5.80898627,5.87958543 6.18524139,5.86937276 6.42359305,6.37660166 L7.12332542,7.85743768 L8.68623129,8.09573313 C9.21230745,8.17573232 9.33829333,8.54509027 8.95012063,8.93997988" id="Shape" fill="#FFFFFF"></path>
                <path d="M8.13209145,0.00162645703 C7.93903472,0.00162645703 7.78323455,0.133369477 7.73920406,0.30740038 L6.63505504,2.42992681 C6.63505504,2.42992681 8.99745978,2.56817566 10.3945809,3.88072648 L11.9390347,0.645703443 C11.9762913,0.544863107 12,0.458660884 12,0.370832204 C12,0.14800759 11.8154107,0 11.5867909,0 L8.13209145,0 L8.13209145,0.00162645703 Z M5.49026249,2.43155327 L4.38780694,0.309026837 C4.34208298,0.134995934 4.18797629,0.00325291407 3.99491956,0.00325291407 L0.413209145,0.00325291407 C0.184589331,0.00325291407 0,0.183789645 0,0.406614259 C0,0.494442938 0.033869602,0.570886419 0.082980525,0.637571157 L1.73073666,3.88235294 C3.12785775,2.57142857 5.49026249,2.43155327 5.49026249,2.43155327 Z" id="Shape" fill="#C58137"></path>
            </g>
        </g>
    </g>
</svg>