<?xml version="1.0" encoding="UTF-8"?>
<svg width="81px" height="84px" viewBox="0 0 81 84" version="1.1" xmlns="http://www.w3.org/2000/svg" xmlns:xlink="http://www.w3.org/1999/xlink">
    <!-- Generator: Sketch 51.1 (57501) - http://www.bohemiancoding.com/sketch -->
    <title>故障子系统</title>
    <desc>Created with Sketch.</desc>
    <defs>
        <linearGradient x1="0%" y1="0%" x2="124.859386%" y2="252.77475%" id="linearGradient-1">
            <stop stop-color="#4285F4" offset="0%"></stop>
            <stop stop-color="#DEE7F7" stop-opacity="0.215692935" offset="100%"></stop>
        </linearGradient>
    </defs>
    <g id="首页v0.3" stroke="none" stroke-width="1" fill="none" fill-rule="evenodd">
        <g id="首页" transform="translate(-506.000000, -695.000000)">
            <g id="Group-10" transform="translate(0.000000, 634.000000)">
                <g id="Group-6" transform="translate(506.740849, 61.000000)">
                    <g id="故障子系统" transform="translate(3.004392, 3.000000)">
                        <path d="M51.5348049,1.5 L51.8702848,1.5 C51.6174229,1.5 51.4936233,1.45967044 51.3785389,1.40333593 C51.4149234,1.42387246 51.4559163,1.44873729 51.5097484,1.4836422 C51.5179362,1.4889512 51.5262862,1.49440393 51.5347978,1.5 Z M67.3796486,15.0758511 C67.5455013,15.2237191 67.7126042,15.3727657 67.8809571,15.522991 L67.3796486,14.4037881 L67.3796486,15.0758511 Z M67.3796486,30.0654818 L67.3796486,30.6648452 L67.7926849,29.6311576 L67.3796486,30.0654818 Z M26.6347941,72.9103239 L23.7818355,75.9103239 L27.6555841,75.9103239 L27.6555841,72.9103239 L26.6347941,72.9103239 Z" id="Rectangle-13-Copy" stroke="#4285F4" stroke-width="3"></path>
                        <rect id="Rectangle-14-Copy" fill="url(#linearGradient-1)" x="13.3062958" y="18.2067814" width="39.9188873" height="7.9159919"></rect>
                        <rect id="Rectangle-14-Copy-2" fill="url(#linearGradient-1)" x="13.3062958" y="35.6219636" width="21.1335286" height="7.9159919"></rect>
                        <rect id="Rectangle-14-Copy-4" fill="url(#linearGradient-1)" x="13.3062958" y="53.0371457" width="21.1335286" height="7.9159919"></rect>
                        <g id="Group-3" transform="translate(32.874378, 34.038765)" fill-rule="nonzero">
                            <path d="M28.698086,23.465587 L26.1375001,26.0672065 L24.6028168,24.502834 L22.5593525,22.4198381 L26.1375001,18.2453441 C30.2327693,19.8097166 34.8284788,19.2910931 37.8978455,16.6809717 C40.9672123,14.0708502 40.9672123,9.38623482 40.9672123,9.38623482 L38.4066264,8.34048583 L33.810917,13.0336032 L27.1634026,6.77611336 L31.7674527,2.08299595 L30.7415502,-7.10542736e-15 C30.7415502,-7.10542736e-15 26.1375001,-7.10542736e-15 23.0681334,3.12874494 C20.5075476,5.7388664 19.4899858,10.4234818 21.53345,14.5979757 L17.4381808,18.2453441 L11.8165689,13.0336032 L11.8165689,8.85910931 L6.70373793,5.7388664 L5.16905456,7.30323887 L3.63437119,8.86761134 L2.09968783,9.91336032 L5.67783546,15.1251012 L9.2559831,15.6437247 L14.877595,20.8554656 L0.0562235587,34.9348178 C0.0562235587,34.9348178 -0.45255734,37.5449393 1.59090693,39.1093117 C3.12559029,40.6736842 5.68617613,40.1550607 5.68617613,40.1550607 L20.0071073,25.0384615 L22.0505716,27.1214575 L23.585255,28.68583 L20.5158882,31.8145749 C24.6111574,35.9890688 29.2068669,40.1550607 33.3021361,44.3295547 C37.9061862,43.2838057 39.9496505,40.1550607 41.4843338,35.9890688 C37.3890646,31.8060729 32.7850145,27.6315789 28.698086,23.465587 Z" id="Path" fill="#85AEF3"></path>
                            <path d="M6.23320365,38.3608952 C5.69673039,38.9308487 4.61498922,38.9308487 3.53324806,38.3608952 C2.9967748,37.7909417 2.9967748,36.6416911 3.53324806,35.4924406 C4.06972132,34.3431901 5.15146248,34.9224871 6.23320365,35.4924406 C7.31494481,36.0717376 7.31494481,37.2209882 6.23320365,38.3608952 Z" id="Path" fill="#FFFFFF"></path>
                            <polygon id="Path" fill="#FFFFFF" points="33.7278885 41.9547571 24.2644217 32.4555668 25.7590808 30.8723684 35.2225476 40.8964234 33.7278885 41.9547571"></polygon>
                            <polygon id="Path" fill="#FFFFFF" points="36.8587816 38.7883603 27.3953148 29.2175799 28.8899739 27.7059717 38.3534407 36.7756211 36.8587816 38.7883603"></polygon>
                        </g>
                    </g>
                </g>
            </g>
        </g>
    </g>
</svg>