<?xml version="1.0" encoding="UTF-8"?>
<svg width="76px" height="101px" viewBox="0 0 76 101" version="1.1" xmlns="http://www.w3.org/2000/svg" xmlns:xlink="http://www.w3.org/1999/xlink">
    <!-- Generator: Sketch 52.2 (67145) - http://www.bohemiancoding.com/sketch -->
    <title>szfpq_bg</title>
    <desc>Created with Sketch.</desc>
    <g id="Page-1" stroke="none" stroke-width="1" fill="none" fill-rule="evenodd" fill-opacity="0.7">
        <g id="大屏_20181126" transform="translate(-2599.000000, -108.000000)" fill="#0F3143">
            <g id="Group" transform="translate(2599.000000, 108.000000)">
                <g id="szfpq_bg">
                    <path d="M1.84741111e-13,4.61852778e-14 L75.6,4.61852778e-14 L75.6,25.2 C75.6,39.1175757 64.3227603,50.4 50.4000272,50.4 L25.1999728,50.4 C11.2824121,50.4 1.84741111e-13,39.1206358 1.84741111e-13,25.2 L1.84741111e-13,4.61852778e-14 Z" id="Rectangle-11-Copy-2"></path>
                    <path d="M1.84741111e-13,50 L75.6,50 L75.6,75.2 C75.6,89.1175757 64.3227603,100.4 50.4000272,100.4 L25.1999728,100.4 C11.2824121,100.4 1.84741111e-13,89.1206358 1.84741111e-13,75.2 L1.84741111e-13,50 Z" id="Rectangle-11-Copy-2" transform="translate(37.800000, 75.200000) scale(1, -1) translate(-37.800000, -75.200000) "></path>
                </g>
            </g>
        </g>
    </g>
</svg>