<?xml version="1.0" encoding="UTF-8"?>
<svg width="20px" height="20px" viewBox="0 0 20 20" version="1.1" xmlns="http://www.w3.org/2000/svg" xmlns:xlink="http://www.w3.org/1999/xlink">
    <!-- Generator: Sketch 52.4 (67378) - http://www.bohemiancoding.com/sketch -->
    <title>正常CPE</title>
    <desc>Created with Sketch.</desc>
    <defs>
        <filter x="-92.3%" y="-92.3%" width="284.6%" height="284.6%" filterUnits="objectBoundingBox" id="filter-1">
            <feOffset dx="0" dy="2" in="SourceAlpha" result="shadowOffsetOuter1"></feOffset>
            <feGaussianBlur stdDeviation="2" in="shadowOffsetOuter1" result="shadowBlurOuter1"></feGaussianBlur>
            <feColorMatrix values="0 0 0 0 0   0 0 0 0 0   0 0 0 0 0  0 0 0 0.35 0" type="matrix" in="shadowBlurOuter1" result="shadowMatrixOuter1"></feColorMatrix>
            <feMerge>
                <feMergeNode in="shadowMatrixOuter1"></feMergeNode>
                <feMergeNode in="SourceGraphic"></feMergeNode>
            </feMerge>
        </filter>
        <path d="M1.71,1.724 C2.0835,1.724 2.394,1.8185 2.637,2.0165 C2.871,2.2055 3.015,2.4665 3.0645,2.7905 L2.5875,2.7905 C2.5335,2.5745 2.43,2.4125 2.277,2.309 C2.124,2.2055 1.935,2.156 1.701,2.156 C1.3545,2.156 1.0935,2.273 0.918,2.5115 C0.7515,2.7275 0.6705,3.0245 0.6705,3.398 C0.6705,3.785 0.7515,4.082 0.9135,4.2935 C1.0845,4.5185 1.35,4.631 1.71,4.631 C1.944,4.631 2.142,4.5725 2.295,4.4555 C2.457,4.3295 2.5695,4.1405 2.6325,3.8885 L3.1095,3.8885 C3.0375,4.262 2.871,4.5545 2.6055,4.766 C2.358,4.964 2.061,5.063 1.7145,5.063 C1.188,5.063 0.792,4.892 0.5265,4.559 C0.2925,4.271 0.18,3.884 0.18,3.398 C0.18,2.921 0.297,2.534 0.54,2.2325 C0.81,1.8905 1.197,1.724 1.71,1.724 Z M3.6045,1.787 L4.9365,1.787 C5.7015,1.787 6.084,2.111 6.084,2.7635 C6.084,3.4205 5.697,3.749 4.9275,3.749 L4.095,3.749 L4.095,5 L3.6045,5 L3.6045,1.787 Z M4.095,2.2055 L4.095,3.3305 L4.896,3.3305 C5.139,3.3305 5.3145,3.2855 5.427,3.1955 C5.535,3.1055 5.5935,2.9615 5.5935,2.7635 C5.5935,2.5655 5.535,2.4215 5.4225,2.3405 C5.31,2.2505 5.1345,2.2055 4.896,2.2055 L4.095,2.2055 Z M6.5385,1.787 L8.847,1.787 L8.847,2.2055 L7.029,2.2055 L7.029,3.1415 L8.739,3.1415 L8.739,3.56 L7.029,3.56 L7.029,4.5815 L8.9235,4.5815 L8.9235,5 L6.5385,5 L6.5385,1.787 Z" id="path-2"></path>
    </defs>
    <g id="门户v3" stroke="none" stroke-width="1" fill="none" fill-rule="evenodd">
        <g id="首页--国内修改地图底图" transform="translate(-55.000000, -497.000000)">
            <g id="图例" transform="translate(50.000000, 468.000000)">
                <g id="正常CPE" filter="url(#filter-1)" transform="translate(8.000000, 31.000000)">
                    <path d="M7.75811417,0.810063312 L11.9885829,3.88367873 C12.608739,4.33424853 12.8682375,5.13290267 12.6313589,5.86193993 L11.0154637,10.8351541 C10.7785851,11.5641914 10.0992093,12.0577868 9.33265411,12.0577868 L4.10350727,12.0577868 C3.33695213,12.0577868 2.65757635,11.5641914 2.42069778,10.8351541 L0.804802528,5.86193993 C0.567923961,5.13290267 0.827422418,4.33424853 1.44757856,3.88367873 L5.67804725,0.810063312 C6.29820338,0.359493502 7.13795803,0.359493502 7.75811417,0.810063312 Z" id="Polygon" fill="#6CA5FF"></path>
                    <path d="M3.6278436,9.57480989 L9.87215642,9.57480989 C10.2189049,9.57480989 10.5,9.90991639 10.5,10.3232911 C10.5,10.7366659 10.2189049,11.0717724 9.87215642,11.0717724 L3.6278436,11.0717724 C3.28109515,11.0717724 3,10.7366659 3,10.3232911 C3,9.90991639 3.28109515,9.57480989 3.6278436,9.57480989 Z" id="Rectangle" fill="#4180F3"></path>
                    <g id="EPC" transform="translate(2.000000, 3.000000)">
                        <g id="CPE">
                            <use fill="#000000" xlink:href="#path-2"></use>
                            <use fill="#FFFFFF" xlink:href="#path-2"></use>
                        </g>
                    </g>
                </g>
            </g>
        </g>
    </g>
</svg>