<?xml version="1.0" encoding="UTF-8"?>
<svg width="16px" height="16px" viewBox="0 0 16 16" version="1.1" xmlns="http://www.w3.org/2000/svg" xmlns:xlink="http://www.w3.org/1999/xlink">
    <!-- Generator: Sketch 51.1 (57501) - http://www.bohemiancoding.com/sketch -->
    <title>大屏</title>
    <desc>Created with Sketch.</desc>
    <defs></defs>
    <g id="首页v0.3" stroke="none" stroke-width="1" fill="none" fill-rule="evenodd" fill-opacity="0.7">
        <g id="导航展开二级" transform="translate(-1094.000000, -91.000000)" fill="#FFFFFF" fill-rule="nonzero">
            <g id="Group-3" transform="translate(1094.000000, 91.000000)">
                <g id="大屏" transform="translate(0.000000, 1.000000)">
                    <path d="M14.2857143,11.7714286 L1.71428571,11.7714286 C0.8,11.7714286 0,10.9714286 0,10.0571429 L0,1.71428571 C0,0.8 0.8,0 1.71428571,0 L14.2857143,0 C15.2,0 16,0.8 16,1.71428571 L16,10.0571429 C16,11.0857143 15.2,11.7714286 14.2857143,11.7714286 Z M1.71428571,1.14285714 C1.37142857,1.14285714 1.14285714,1.37142857 1.14285714,1.71428571 L1.14285714,10.0571429 C1.14285714,10.4 1.37142857,10.6285714 1.71428571,10.6285714 L14.2857143,10.6285714 C14.6285714,10.6285714 14.8571429,10.4 14.8571429,10.0571429 L14.8571429,1.71428571 C14.8571429,1.37142857 14.6285714,1.14285714 14.2857143,1.14285714 L1.71428571,1.14285714 Z M15.4285714,13.7142857 L0.571428571,13.7142857 C0.228571429,13.7142857 0,13.4857143 0,13.1428571 C0,12.8 0.228571429,12.5714286 0.571428571,12.5714286 L15.4285714,12.5714286 C15.7714286,12.5714286 16,12.8 16,13.1428571 C16,13.4857143 15.7714286,13.7142857 15.4285714,13.7142857 Z" id="Shape"></path>
                    <path d="M2.51428571,4.91428571 C2.17142857,4.91428571 1.94285714,4.68571429 1.94285714,4.34285714 L1.94285714,2.62857143 C1.94285714,2.28571429 2.17142857,2.05714286 2.51428571,2.05714286 L4.34285714,2.05714286 C4.57142857,2.05714286 4.91428571,2.28571429 4.91428571,2.62857143 C4.91428571,2.97142857 4.57142857,3.2 4.34285714,3.2 L3.08571429,3.2 L3.08571429,4.45714286 C3.08571429,4.68571429 2.85714286,4.91428571 2.51428571,4.91428571 Z M4.34285714,9.82857143 L2.51428571,9.82857143 C2.17142857,9.82857143 1.94285714,9.6 1.94285714,9.25714286 L1.94285714,7.42857143 C1.94285714,7.2 2.17142857,6.85714286 2.51428571,6.85714286 C2.85714286,6.85714286 3.08571429,7.08571429 3.08571429,7.42857143 L3.08571429,8.68571429 L4.34285714,8.68571429 C4.68571429,8.68571429 4.91428571,8.91428571 4.91428571,9.25714286 C4.91428571,9.6 4.57142857,9.82857143 4.34285714,9.82857143 Z" id="Shape"></path>
                    <path d="M13.4857143,4.91428571 C13.1428571,4.91428571 12.9142857,4.68571429 12.9142857,4.34285714 L12.9142857,3.2 L11.6571429,3.2 C11.3142857,3.2 11.0857143,2.97142857 11.0857143,2.62857143 C11.0857143,2.28571429 11.3142857,2.05714286 11.6571429,2.05714286 L13.4857143,2.05714286 C13.8285714,2.05714286 14.0571429,2.28571429 14.0571429,2.62857143 L14.0571429,4.45714286 C14.0571429,4.68571429 13.8285714,4.91428571 13.4857143,4.91428571 Z M13.4857143,9.82857143 L11.6571429,9.82857143 C11.3142857,9.82857143 11.0857143,9.6 11.0857143,9.25714286 C11.0857143,8.91428571 11.3142857,8.68571429 11.6571429,8.68571429 L12.9142857,8.68571429 L12.9142857,7.42857143 C12.9142857,7.08571429 13.1428571,6.85714286 13.4857143,6.85714286 C13.8285714,6.85714286 14.0571429,7.08571429 14.0571429,7.42857143 L14.0571429,9.25714286 C14.0571429,9.6 13.8285714,9.82857143 13.4857143,9.82857143 Z" id="Shape"></path>
                </g>
            </g>
        </g>
    </g>
</svg>