<?xml version="1.0" encoding="UTF-8"?>
<svg width="30px" height="30px" viewBox="0 0 30 30" version="1.1" xmlns="http://www.w3.org/2000/svg" xmlns:xlink="http://www.w3.org/1999/xlink">
    <!-- Generator: Sketch 51.1 (57501) - http://www.bohemiancoding.com/sketch -->
    <title>中国移动logo</title>
    <desc>Created with Sketch.</desc>
    <defs>
        <polygon id="path-1" points="0.436238095 0.211904762 28.5519524 0.211904762 28.5519524 14.2066667 0.436238095 14.2066667"></polygon>
    </defs>
    <g id="首页v0.3" stroke="none" stroke-width="1" fill="none" fill-rule="evenodd">
        <g id="导航展开二级" transform="translate(-30.000000, -10.000000)">
            <g id="中国移动logo" transform="translate(30.000000, 10.000000)">
                <path d="M29.242,18.6520476 C26.6100952,15.170619 22.6767619,11.6096667 21.5905714,10.7287143 C20.8277143,10.1110952 20.0715238,9.80157143 19.3239048,9.813 C18.5753333,9.82109524 17.8515238,10.1301429 17.2105714,10.6877619 C17.0834286,10.7987143 16.8981905,10.9634762 16.6715238,11.1658571 C15.1077143,12.4820476 10.2781905,16.923 10.1681905,17.0244286 C9.80104762,17.3687143 9.33295238,17.5925238 8.80580952,17.575381 C8.34152381,17.5563333 7.83295238,17.3491905 7.31104762,16.8644286 C6.95104762,16.5315714 5.30152381,15.2358571 3.37342857,13.0687143 C2.18771429,11.7372857 1.20819048,10.5468095 1.20819048,10.5468095 C1.20819048,10.5468095 0.989619048,10.9968095 0.867714286,11.3077619 C0.766285714,11.5677619 0.853904762,11.7315714 0.902952381,11.8020476 C1.5467619,12.7272857 4.48961905,16.2477619 8.54628571,19.7439524 C9.28866667,20.383 10.064381,20.6696667 10.812,20.6596667 C11.5605714,20.6496667 12.2834286,20.3410952 12.9239048,19.7825238 C13.0515238,19.6720476 13.2377143,19.5091905 13.464381,19.3049048 C15.0267619,17.9882381 17.9539048,15.305381 19.3415238,14.0191905 C19.6381905,13.750619 19.8577143,13.5482381 19.9672381,13.4444286 C20.3339048,13.1025238 20.8024762,12.8772857 21.3291429,12.8949048 C21.7939048,12.9149048 22.2834286,13.1449048 22.8253333,13.605381 C23.6915238,14.3468095 25.0977143,15.6477619 26.7624762,17.4020476 C27.9862857,18.6910952 28.9200952,19.8977619 28.9305714,19.910619 C28.9305714,19.910619 29.1581905,19.4468095 29.2791429,19.1291905 C29.3777143,18.8687143 29.2929524,18.7215714 29.242,18.6520476" id="Fill-1" fill="#8EC31F" fill-rule="nonzero"></path>
                <path d="M13.6132857,5.85671429 C12.2551905,6.84909524 6.6637619,12.0429048 5.56661905,13.2848095 C5.56661905,13.2848095 6.3542381,14.153381 7.5342381,15.131 C7.84042857,15.3929048 8.21138095,15.3400476 8.53042857,15.0152857 C10.6837619,12.8505238 15.0780476,8.97671429 15.6694762,8.50385714 C17.3261429,7.0962381 19.2561429,6.97147619 21.0242381,8.29671429 C25.3142381,11.511 29.1099524,16.5695714 29.7637619,17.513381 C29.7637619,17.513381 29.8594762,17.048619 29.919,16.6300476 C29.9218571,16.6067143 30.0018571,16.2305238 29.7870952,15.9148095 C25.7618571,10.1019524 21.479,6.51528571 19.8342381,5.621 C17.9518571,4.59528571 15.7804286,4.27528571 13.6132857,5.85671429" id="Fill-3" fill="#0085CF" fill-rule="nonzero"></path>
                <g id="Group-7" transform="translate(1.428571, 0.264286)">
                    <g id="Fill-5-Clipped">
                        <mask id="mask-2" fill="white">
                            <use xlink:href="#path-1"></use>
                        </mask>
                        <g id="path-1"></g>
                        <path d="M7.65719048,2.55952381 C4.8957619,4.79142857 1.33814286,8.07571429 0.436238095,9.0647619 C0.436238095,9.0647619 1.10861905,9.90190476 2.1662381,10.9371429 C2.36909524,11.1109524 2.58480952,11.0642857 2.76338095,10.8752381 C5.4957619,8.23714286 8.4562381,5.54571429 10.1729048,4.21619048 C13.0719524,1.97619048 16.4695714,1.75809524 19.7824286,4.40619048 C21.0167143,5.39333333 22.1114762,6.36952381 23.711,8.01666667 C25.7562381,10.2461905 27.091,12.1080952 28.5519524,14.2066667 C28.5519524,14.2066667 28.5443333,13.6442857 28.383381,12.8995238 C28.3567143,12.7728571 28.301,12.5695238 28.2095714,12.3852381 C27.9167143,11.7980952 26.6257619,9.58285714 24.753381,7.39714286 C21.0405238,3.06047619 18.6971905,1.74047619 17.1938571,0.951904762 C15.2019524,-0.0957142857 11.3195714,-0.40047619 7.65719048,2.55952381" id="Fill-5" fill="#0085CF" fill-rule="nonzero" mask="url(#mask-2)"></path>
                    </g>
                </g>
                <path d="M16.5327143,24.6137143 C17.8917619,23.6218095 23.4831905,18.4289524 24.579381,17.1860952 C24.579381,17.1860952 23.7927143,16.3175238 22.6117619,15.3399048 C22.3065238,15.0770476 21.934619,15.1318095 21.6155714,15.4537143 C19.4622381,17.620381 15.0689048,21.4927619 14.4774762,21.9684762 C12.8208095,23.3737143 10.8908095,23.4994286 9.12366667,22.1737143 C4.83271429,18.9589524 1.037,13.9022857 0.384142857,12.9589524 C0.384142857,12.9589524 0.28652381,13.4222857 0.227952381,13.840381 C0.225095238,13.8651429 0.145095238,14.2413333 0.358904762,14.5565714 C4.38414286,20.3689524 8.667,23.9551429 10.3117619,24.8484762 C12.1950952,25.875619 14.3665238,26.1951429 16.5327143,24.6137143" id="Fill-8" fill="#0085CF" fill-rule="nonzero"></path>
                <path d="M21.0602381,27.6470952 C23.822619,25.4161429 27.3792857,22.131381 28.2821429,21.1418571 C28.2821429,21.1418571 27.6088095,20.3028095 26.5530952,19.2694762 C26.3483333,19.0947143 26.132619,19.141381 25.9540476,19.3309048 C23.222619,21.9694762 20.2621429,24.661381 18.5445238,25.9894762 C15.647381,28.2309048 12.2478571,28.446619 8.93404762,25.7999524 C7.70166667,24.8137619 6.60595238,23.8370952 5.00642857,22.1899524 C2.96119048,19.9599524 1.62642857,18.0970952 0.166226632,15.9994762 C0.166226632,15.9994762 0.156428571,16.5428095 0.334047619,17.306619 C0.363571429,17.4328095 0.417380952,17.6380476 0.507857143,17.8180476 C0.801666667,18.4094762 2.09261905,20.6237619 3.96404762,22.8094762 C7.67738095,27.1461429 10.0211905,28.4661429 11.5245238,29.2542381 C13.5154762,30.3018571 17.3988095,30.6070952 21.0602381,27.6470952" id="Fill-10" fill="#0085CF" fill-rule="nonzero"></path>
            </g>
        </g>
    </g>
</svg>