<?xml version="1.0" encoding="UTF-8"?>
<svg width="16px" height="16px" viewBox="0 0 16 16" version="1.1" xmlns="http://www.w3.org/2000/svg" xmlns:xlink="http://www.w3.org/1999/xlink">
    <!-- Generator: Sketch 51.1 (57501) - http://www.bohemiancoding.com/sketch -->
    <title>工作台</title>
    <desc>Created with Sketch.</desc>
    <defs></defs>
    <g id="首页v0.3" stroke="none" stroke-width="1" fill="none" fill-rule="evenodd" fill-opacity="0.7">
        <g id="导航展开二级" transform="translate(-1145.000000, -17.000000)" fill="#FFFFFF" fill-rule="nonzero">
            <g id="Group-4" transform="translate(1145.000000, 17.000000)">
                <g id="工作台">
                    <path d="M9.25238294,10.662031 L3.72087489,10.662031 L3.72087489,12.0550485 L9.25238294,12.0550485 L9.25238294,10.662031 Z M9.25238294,7.63725916 L3.72087489,7.63725916 L3.72087489,9.03259453 L9.25238294,9.03259453 L9.25238294,7.63725916 Z M7.16633339,4.64725481 L3.72087489,4.64725481 L3.72087489,6.04027234 L7.16633339,6.04027234 L7.16633339,4.64725481 Z M8.10621459,1.85194842 L1.39284359,1.85194842 L1.39284359,14.6046646 L11.580646,14.6046646 L11.580646,8.11936839 L12.9741271,8.11936839 L12.9741271,14.8086339 C12.9729768,15.4654835 12.4403069,15.9974275 11.7834564,15.9976822 L1.19096036,15.9976822 C0.534147501,15.9974273 0.00154403829,15.465446 0.000521421875,14.8086339 L0.000521421875,1.64797914 C0.0015440469,0.991167035 0.534147507,0.459185777 1.19096036,0.458930906 L8.10714173,0.458930906 L8.10714173,1.85194842 L8.10621459,1.85194842 Z M14.9405765,2.18339852 L12.8568448,0.0903954844 C12.8049696,0.020673162 12.7170953,-0.012243783 12.6321796,0.00623785882 C12.547264,0.0247195007 12.4810189,0.0911800613 12.4628132,0.176155297 L12.1788787,0.941040125 C12.0836667,1.16029612 11.9213617,1.34370078 11.7153121,1.46487034 L9.07298267,2.83239172 C8.98921689,2.86619369 8.92928627,2.94141416 8.9150522,3.03061433 C8.90081813,3.1198145 8.93436198,3.20995112 9.00344769,3.26814428 L9.94912348,4.21845575 L8.39942045,6.44821092 L10.687585,4.96016225 L11.7744168,6.05186152 C11.8339351,6.12116939 11.924484,6.15564958 12.0150269,6.14348362 C12.1055697,6.13131766 12.1838053,6.07415841 12.2229175,5.99159786 L13.6743444,3.43502825 C13.8040335,3.23042794 13.9828318,3.06150982 14.1944661,2.94364769 L14.8691872,2.61219759 C14.953126,2.58070377 15.0138964,2.50683401 15.0286197,2.41839873 C15.0433429,2.32996345 15.0097838,2.24038908 14.9405765,2.18339852 Z" id="Shape"></path>
                </g>
            </g>
        </g>
    </g>
</svg>