<?xml version="1.0" encoding="UTF-8"?>
<svg width="16px" height="17px" viewBox="0 0 16 17" version="1.1" xmlns="http://www.w3.org/2000/svg" xmlns:xlink="http://www.w3.org/1999/xlink">
    <!-- Generator: Sketch 51.1 (57501) - http://www.bohemiancoding.com/sketch -->
    <title>工作台</title>
    <desc>Created with Sketch.</desc>
    <defs></defs>
    <g id="首页v0.3" stroke="none" stroke-width="1" fill="none" fill-rule="evenodd" fill-opacity="0.7">
        <g id="首页" transform="translate(-1145.000000, -16.000000)" fill="#FFFFFF" fill-rule="nonzero">
            <g id="导航-首页">
                <g id="Group-4" transform="translate(1145.000000, 16.333333)">
                    <g id="工作台">
                        <path d="M9.25238294,10.8841566 L3.72087489,10.8841566 L3.72087489,12.3061954 L9.25238294,12.3061954 L9.25238294,10.8841566 Z M9.25238294,7.79636872 L3.72087489,7.79636872 L3.72087489,9.22077358 L9.25238294,9.22077358 L9.25238294,7.79636872 Z M7.16633339,4.74407262 L3.72087489,4.74407262 L3.72087489,6.16611135 L7.16633339,6.16611135 L7.16633339,4.74407262 Z M8.10621459,1.89053068 L1.39284359,1.89053068 L1.39284359,14.9089285 L11.580646,14.9089285 L11.580646,8.2885219 L12.9741271,8.2885219 L12.9741271,15.1171471 C12.9729768,15.7876811 12.4403069,16.3307073 11.7834564,16.3309672 L1.19096036,16.3309672 C0.534147501,16.330707 0.00154403829,15.7876428 0.000521421875,15.1171471 L0.000521421875,1.68231204 C0.0015440469,1.01181635 0.534147507,0.468752147 1.19096036,0.468491967 L8.10714173,0.468491967 L8.10714173,1.89053068 L8.10621459,1.89053068 Z M14.9405765,2.22888598 L12.8568448,0.0922787236 C12.8049696,0.0211038529 12.7170953,-0.0124988618 12.6321796,0.00636781421 C12.547264,0.0252344903 12.4810189,0.0930796459 12.4628132,0.179825199 L12.1788787,0.960645128 C12.0836667,1.18446895 11.9213617,1.37169454 11.7153121,1.49538848 L9.07298267,2.89139988 C8.98921689,2.92590606 8.92928627,3.00269362 8.9150522,3.09375213 C8.90081813,3.18481064 8.93436198,3.2768251 9.00344769,3.33623062 L9.94912348,4.30634024 L8.39942045,6.58254865 L10.687585,5.06349896 L11.7744168,6.17794196 C11.8339351,6.24869375 11.924484,6.28389228 12.0150269,6.27147286 C12.1055697,6.25905345 12.1838053,6.20070338 12.2229175,6.11642281 L13.6743444,3.50659134 C13.8040335,3.29772852 13.9828318,3.12529127 14.1944661,3.00497368 L14.8691872,2.66661838 C14.953126,2.63446843 15.0138964,2.55905972 15.0286197,2.46878203 C15.0433429,2.37850435 15.0097838,2.28706386 14.9405765,2.22888598 Z" id="Shape"></path>
                    </g>
                </g>
            </g>
        </g>
    </g>
</svg>