<?xml version="1.0" encoding="UTF-8"?>
<svg width="16px" height="17px" viewBox="0 0 16 17" version="1.1" xmlns="http://www.w3.org/2000/svg" xmlns:xlink="http://www.w3.org/1999/xlink">
    <!-- Generator: Sketch 51.1 (57501) - http://www.bohemiancoding.com/sketch -->
    <title>大屏</title>
    <desc>Created with Sketch.</desc>
    <defs></defs>
    <g id="首页v0.3" stroke="none" stroke-width="1" fill="none" fill-rule="evenodd" fill-opacity="0.7">
        <g id="首页" transform="translate(-1193.000000, -16.000000)" fill="#FFFFFF" fill-rule="nonzero">
            <g id="导航-首页">
                <g id="Group-3" transform="translate(1193.000000, 16.333333)">
                    <g id="大屏" transform="translate(0.000000, 1.020833)">
                        <path d="M14.2857143,12.0166667 L1.71428571,12.0166667 C0.8,12.0166667 0,11.2 0,10.2666667 L0,1.75 C0,0.816666667 0.8,0 1.71428571,0 L14.2857143,0 C15.2,0 16,0.816666667 16,1.75 L16,10.2666667 C16,11.3166667 15.2,12.0166667 14.2857143,12.0166667 Z M1.71428571,1.16666667 C1.37142857,1.16666667 1.14285714,1.4 1.14285714,1.75 L1.14285714,10.2666667 C1.14285714,10.6166667 1.37142857,10.85 1.71428571,10.85 L14.2857143,10.85 C14.6285714,10.85 14.8571429,10.6166667 14.8571429,10.2666667 L14.8571429,1.75 C14.8571429,1.4 14.6285714,1.16666667 14.2857143,1.16666667 L1.71428571,1.16666667 Z M15.4285714,14 L0.571428571,14 C0.228571429,14 0,13.7666667 0,13.4166667 C0,13.0666667 0.228571429,12.8333333 0.571428571,12.8333333 L15.4285714,12.8333333 C15.7714286,12.8333333 16,13.0666667 16,13.4166667 C16,13.7666667 15.7714286,14 15.4285714,14 Z" id="Shape"></path>
                        <path d="M2.51428571,5.01666667 C2.17142857,5.01666667 1.94285714,4.78333333 1.94285714,4.43333333 L1.94285714,2.68333333 C1.94285714,2.33333333 2.17142857,2.1 2.51428571,2.1 L4.34285714,2.1 C4.57142857,2.1 4.91428571,2.33333333 4.91428571,2.68333333 C4.91428571,3.03333333 4.57142857,3.26666667 4.34285714,3.26666667 L3.08571429,3.26666667 L3.08571429,4.55 C3.08571429,4.78333333 2.85714286,5.01666667 2.51428571,5.01666667 Z M4.34285714,10.0333333 L2.51428571,10.0333333 C2.17142857,10.0333333 1.94285714,9.8 1.94285714,9.45 L1.94285714,7.58333333 C1.94285714,7.35 2.17142857,7 2.51428571,7 C2.85714286,7 3.08571429,7.23333333 3.08571429,7.58333333 L3.08571429,8.86666667 L4.34285714,8.86666667 C4.68571429,8.86666667 4.91428571,9.1 4.91428571,9.45 C4.91428571,9.8 4.57142857,10.0333333 4.34285714,10.0333333 Z" id="Shape"></path>
                        <path d="M13.4857143,5.01666667 C13.1428571,5.01666667 12.9142857,4.78333333 12.9142857,4.43333333 L12.9142857,3.26666667 L11.6571429,3.26666667 C11.3142857,3.26666667 11.0857143,3.03333333 11.0857143,2.68333333 C11.0857143,2.33333333 11.3142857,2.1 11.6571429,2.1 L13.4857143,2.1 C13.8285714,2.1 14.0571429,2.33333333 14.0571429,2.68333333 L14.0571429,4.55 C14.0571429,4.78333333 13.8285714,5.01666667 13.4857143,5.01666667 Z M13.4857143,10.0333333 L11.6571429,10.0333333 C11.3142857,10.0333333 11.0857143,9.8 11.0857143,9.45 C11.0857143,9.1 11.3142857,8.86666667 11.6571429,8.86666667 L12.9142857,8.86666667 L12.9142857,7.58333333 C12.9142857,7.23333333 13.1428571,7 13.4857143,7 C13.8285714,7 14.0571429,7.23333333 14.0571429,7.58333333 L14.0571429,9.45 C14.0571429,9.8 13.8285714,10.0333333 13.4857143,10.0333333 Z" id="Shape"></path>
                    </g>
                </g>
            </g>
        </g>
    </g>
</svg>