<?xml version="1.0" encoding="UTF-8"?>
<svg width="51px" height="50px" viewBox="0 0 51 50" version="1.1" xmlns="http://www.w3.org/2000/svg" xmlns:xlink="http://www.w3.org/1999/xlink">
    <!-- Generator: Sketch 51.1 (57501) - http://www.bohemiancoding.com/sketch -->
    <title>移动</title>
    <desc>Created with Sketch.</desc>
    <defs></defs>
    <g id="登录" stroke="none" stroke-width="1" fill="none" fill-rule="evenodd">
        <g id="Artboard-Copy-4" transform="translate(-658.000000, -189.000000)" fill-rule="nonzero">
            <g id="Group-4" transform="translate(505.000000, 148.000000)">
                <g id="移动" transform="translate(153.000000, 41.000000)">
                    <path d="M48.856966,31.4785228 C44.4234475,25.3861115 37.8043915,19.1488805 35.9767058,17.6157901 C34.6990071,16.5271461 33.4092999,15.985321 32.1604213,16.0003023 C30.8923294,16.0202775 29.674673,16.5670964 28.598716,17.5383865 C28.3849658,17.730647 28.0727461,18.0202863 27.6932792,18.3723478 C25.0562242,20.6794741 16.9241039,28.4472985 16.7391738,28.6345654 C16.1219396,29.231322 15.3389889,29.6258307 14.4455605,29.595868 C13.6650114,29.5609114 12.8124117,29.1963657 11.92859,28.3549137 C11.3305693,27.7706413 8.5470113,25.5009685 5.29992725,21.7106896 C3.29451661,19.3736006 1.65656444,17.2986851 1.65656444,17.2986851 C1.65656444,17.2986851 1.27949921,18.0827085 1.08015899,18.6220368 C0.907237352,19.0789676 1.05614209,19.3661099 1.13539785,19.4934514 C2.21615807,21.1089391 7.18525341,27.2687665 14.0108547,33.3911407 C15.2669382,34.5072504 16.5662522,35.0241066 17.8223357,34.9991377 C19.0856243,34.9741689 20.3008792,34.4423313 21.3816394,33.4585566 C21.6001931,33.2737868 21.902806,32.976657 22.2966831,32.6245955 C24.9217295,30.3224629 29.8427911,25.6283099 32.1916435,23.3711214 C32.688793,22.8942154 33.0586531,22.5521415 33.2435833,22.3623779 C33.8584158,21.7656212 34.6437682,21.3736094 35.5347949,21.3960814 C36.3201473,21.4435224 37.1487304,21.8330372 38.0541672,22.6495202 C39.509591,23.9404123 41.8824599,26.2175759 44.690035,29.2887504 C46.7434793,31.5409451 48.316586,33.6583077 48.3357993,33.6832768 C48.3357993,33.6832768 48.7128647,32.8742844 48.9218117,32.317478 C49.0923316,31.8530566 48.9434268,31.6008706 48.856966,31.4785228" id="Fill-1" fill="#8FC320"></path>
                    <path d="M22.8675825,9.88854991 C20.5223115,11.601629 10.8880169,20.5632971 9,22.7120299 C9,22.7120299 10.3520954,24.1986675 12.382697,25.8969787 C12.908785,26.3424777 13.5577908,26.2514088 14.1133791,25.6976117 C17.8230373,21.9588658 25.3923134,15.2739192 26.4026974,14.4518382 C29.2715981,12.0249761 32.5903778,11.8083799 35.6313634,14.0924854 C43.0359299,19.6476858 49.5800717,28.3755285 50.7059985,30 C50.7059985,30 50.8657915,29.2099161 50.9715008,28.478904 C50.9715008,28.4395227 51.119002,27.7995794 50.7428737,27.2457822 C43.8103117,17.2208238 36.4278707,11.02568 33.5884702,9.48489334 C30.3458994,7.71028122 26.6018243,7.16632939 22.8675825,9.88854991" id="Fill-3" fill="#0085CF"></path>
                    <path d="M15.3306104,4.02328209 C10.6058654,7.85376333 4.53675986,13.4820758 3,15.1820659 C3,15.1820659 4.14709016,16.6129928 5.95174792,18.3985939 C6.29027349,18.6896713 6.66533055,18.6138444 6.97463089,18.2811845 C11.63849,13.756031 16.6920189,9.14282054 19.6242833,6.87290576 C24.570653,3.02041025 30.3718606,2.65350591 36.0318128,7.19578155 C38.1311584,8.88598751 40.0040083,10.5541792 42.7365671,13.3768965 C46.2338525,17.2049318 48.5109848,20.4018915 51,24 C51,24 50.995129,23.0362646 50.7199249,21.7569915 C50.6663454,21.546633 50.5737988,21.1895128 50.4228018,20.8715291 C49.9259729,19.8686572 47.7145974,16.0724204 44.5193058,12.317766 C38.1749962,4.88183825 34.1784465,2.62170754 31.6114974,1.26660754 C28.2067583,-0.528777659 21.5750672,-1.04488975 15.3306104,4.02328209" id="Fill-5" fill="#0085CF"></path>
                    <path d="M28.1264386,41.112729 C30.4690154,39.402421 40.1121732,30.4374544 42,28.2940327 C42,28.2940327 40.6357501,26.8002816 38.607811,25.1145825 C38.0744015,24.6543989 37.4328355,24.7602166 36.8969678,25.3089916 C33.1827666,29.0445995 25.6044197,35.7258742 24.5941373,36.5428846 C21.7279834,38.969307 18.4046214,39.1809424 15.3565675,36.8972507 C7.95520439,31.3504391 1.42401146,22.6266382 0.300656114,21 C0.300656114,21 0.131046662,21.804706 0.0253480185,22.5208206 C0.0253480185,22.5724989 -0.112306029,23.2123264 0.253952061,23.7561797 C7.18335848,33.7867049 14.569973,39.9782658 17.3992553,41.5163125 C20.6513321,43.2906032 24.3974887,43.8319955 28.1264386,41.112729" id="Fill-8" fill="#0085CF"></path>
                    <path d="M35.6671501,45.9823386 C40.3811475,42.1468256 46.461133,36.5183079 48,34.8133636 C48,34.8133636 46.8507197,33.3799383 45.0513166,31.6065027 C44.7006889,31.3007378 44.3281467,31.3961365 44.0189123,31.7116857 C39.3633528,36.2370041 34.308467,40.8552751 31.3719582,43.1350573 C26.4242088,46.9754627 20.6266737,47.3448266 14.9727986,42.8048313 C12.8592914,41.1145636 10.9941457,39.4463112 8.25730009,36.6185987 C4.77293522,32.7855316 2.49141887,29.5957936 0.00024531609,26 C0.00024531609,26 -0.0189795885,26.9319711 0.282950002,28.2479825 C0.338953073,28.463241 0.429044966,28.8105897 0.584879594,29.1261388 C1.0864723,30.1314934 3.28763643,33.9278687 6.48711612,37.6826601 C12.8276375,45.1139667 16.8208999,47.3766261 19.3946061,48.7342215 C22.7888791,50.5198878 29.4167206,51.0555877 35.6671501,45.9823386" id="Fill-10" fill="#0085CF"></path>
                </g>
            </g>
        </g>
    </g>
</svg>