<?xml version="1.0" encoding="UTF-8"?>
<svg width="30px" height="31px" viewBox="0 0 30 31" version="1.1" xmlns="http://www.w3.org/2000/svg" xmlns:xlink="http://www.w3.org/1999/xlink">
    <!-- Generator: Sketch 51.1 (57501) - http://www.bohemiancoding.com/sketch -->
    <title>中国移动logo</title>
    <desc>Created with Sketch.</desc>
    <defs>
        <polygon id="path-1" points="0.436238095 0.216319445 28.5519524 0.216319445 28.5519524 14.5026389 0.436238095 14.5026389"></polygon>
    </defs>
    <g id="首页v0.3" stroke="none" stroke-width="1" fill="none" fill-rule="evenodd">
        <g id="首页" transform="translate(-32.000000, -10.000000)">
            <g id="导航-首页">
                <g id="Group-2">
                    <g id="中国移动logo" transform="translate(32.000000, 10.208333)">
                        <path d="M29.242,19.0406319 C26.6100952,15.4866736 22.6767619,11.8515348 21.5905714,10.9522292 C20.8277143,10.321743 20.0715238,10.0057708 19.3239048,10.0174375 C18.5753333,10.0257014 17.8515238,10.3411875 17.2105714,10.9104236 C17.0834286,11.0236875 16.8981905,11.191882 16.6715238,11.3984791 C15.1077143,12.7420903 10.2781905,17.2755625 10.1681905,17.3791042 C9.80104762,17.7305625 9.33295238,17.9590347 8.80580952,17.9415348 C8.34152381,17.9220902 7.83295238,17.710632 7.31104762,17.2157709 C6.95104762,16.8759791 5.30152381,15.5532708 3.37342857,13.3409792 C2.18771429,11.9818125 1.20819048,10.7665347 1.20819048,10.7665347 C1.20819048,10.7665347 0.989619048,11.2259097 0.867714286,11.5433403 C0.766285714,11.8087569 0.853904762,11.9759791 0.902952381,12.0479236 C1.5467619,12.9924375 4.48961905,16.5862569 8.54628571,20.1552847 C9.28866667,20.8076458 10.064381,21.1002848 10.812,21.0900764 C11.5605714,21.0798681 12.2834286,20.764868 12.9239048,20.1946597 C13.0515238,20.0818819 13.2377143,19.915632 13.464381,19.7070903 C15.0267619,18.3629931 17.9539048,15.6242431 19.3415238,14.311257 C19.6381905,14.0370902 19.8577143,13.8304931 19.9672381,13.7245209 C20.3339048,13.375493 20.8024762,13.1455625 21.3291429,13.1635486 C21.7939048,13.1839653 22.2834286,13.418757 22.8253333,13.8888264 C23.6915238,14.6457014 25.0977143,15.9737569 26.7624762,17.7645903 C27.9862857,19.080493 28.9200952,20.3122986 28.9305714,20.3254236 C28.9305714,20.3254236 29.1581905,19.8519514 29.2791429,19.5277153 C29.3777143,19.2618125 29.2929524,19.1116041 29.242,19.0406319" id="Fill-1" fill="#8EC31F" fill-rule="nonzero"></path>
                        <path d="M13.6132857,5.97872917 C12.2551905,6.99178472 6.6637619,12.2937986 5.56661905,13.5615764 C5.56661905,13.5615764 6.3542381,14.4482431 7.5342381,15.4462292 C7.84042857,15.7135903 8.21138095,15.6596319 8.53042857,15.3281042 C10.6837619,13.118243 15.0780476,9.16372917 15.6694762,8.68102083 C17.3261429,7.24407639 19.2561429,7.11671528 21.0242381,8.4695625 C25.3142381,11.7508125 29.1099524,16.9147708 29.7637619,17.8782431 C29.7637619,17.8782431 29.8594762,17.4037986 29.919,16.9765069 C29.9218571,16.9526875 30.0018571,16.5686597 29.7870952,16.246368 C25.7618571,10.3124097 21.479,6.65102083 19.8342381,5.73810417 C17.9518571,4.69102083 15.7804286,4.36435416 13.6132857,5.97872917" id="Fill-3" fill="#0085CF" fill-rule="nonzero"></path>
                        <g id="Group-7" transform="translate(1.428571, 0.269792)">
                            <g id="Fill-5-Clipped">
                                <mask id="mask-2" fill="white">
                                    <use xlink:href="#path-1"></use>
                                </mask>
                                <g id="path-1"></g>
                                <path d="M7.65719048,2.61284722 C4.8957619,4.89125 1.33814286,8.24395834 0.436238095,9.25361111 C0.436238095,9.25361111 1.10861905,10.1081944 2.1662381,11.165 C2.36909524,11.3424306 2.58480952,11.2947917 2.76338095,11.1018056 C5.4957619,8.40875 8.4562381,5.66125 10.1729048,4.30402778 C13.0719524,2.01736111 16.4695714,1.79472222 19.7824286,4.49798611 C21.0167143,5.50569444 22.1114762,6.50222222 23.711,8.18368056 C25.7562381,10.4596528 27.091,12.3603472 28.5519524,14.5026389 C28.5519524,14.5026389 28.5443333,13.9285417 28.383381,13.1682639 C28.3567143,13.0389583 28.301,12.8313889 28.2095714,12.6432639 C27.9167143,12.0438888 26.6257619,9.7825 24.753381,7.55125 C21.0405238,3.12423611 18.6971905,1.77673611 17.1938571,0.971736111 C15.2019524,-0.0977083333 11.3195714,-0.408819444 7.65719048,2.61284722" id="Fill-5" fill="#0085CF" fill-rule="nonzero" mask="url(#mask-2)"></path>
                            </g>
                        </g>
                        <path d="M16.5327143,25.1265 C17.8917619,24.1139305 23.4831905,18.8128889 24.579381,17.5441388 C24.579381,17.5441388 23.7927143,16.6574722 22.6117619,15.6594861 C22.3065238,15.3911528 21.934619,15.4470555 21.6155714,15.7756667 C19.4622381,17.9874723 15.0689048,21.9405278 14.4774762,22.4261528 C12.8208095,23.8606667 10.8908095,23.989 9.12366667,22.6356667 C4.83271429,19.3539306 1.037,14.1919167 0.384142857,13.2289306 C0.384142857,13.2289306 0.28652381,13.7019167 0.227952381,14.1287223 C0.225095238,14.154 0.145095238,14.5380277 0.358904762,14.8598333 C4.38414286,20.7933056 8.667,24.4542084 10.3117619,25.3661528 C12.1950952,26.4146944 14.3665238,26.740875 16.5327143,25.1265" id="Fill-8" fill="#0085CF" fill-rule="nonzero"></path>
                        <path d="M21.0602381,28.2230763 C23.822619,25.9456459 27.3792857,22.5924514 28.2821429,21.5823125 C28.2821429,21.5823125 27.6088095,20.7257847 26.5530952,19.6709236 C26.3483333,19.4925208 26.132619,19.5401598 25.9540476,19.733632 C23.222619,22.4271736 20.2621429,25.1751598 18.5445238,26.5309236 C15.647381,28.8190486 12.2478571,29.0392569 8.93404762,26.3374514 C7.70166667,25.3307153 6.60595238,24.3337013 5.00642857,22.6522431 C2.96119048,20.3757847 1.62642857,18.474118 0.166226632,16.3327986 C0.166226632,16.3327986 0.156428571,16.8874514 0.334047619,17.6671736 C0.363571429,17.795993 0.417380952,18.0055069 0.507857143,18.1892569 C0.801666667,18.793007 2.09261905,21.0534236 3.96404762,23.2846736 C7.67738095,27.7116875 10.0211905,29.0591875 11.5245238,29.8637014 C13.5154762,30.9331458 17.3988095,31.244743 21.0602381,28.2230763" id="Fill-10" fill="#0085CF" fill-rule="nonzero"></path>
                    </g>
                </g>
            </g>
        </g>
    </g>
</svg>