<?xml version="1.0" encoding="UTF-8"?>
<svg width="81px" height="84px" viewBox="0 0 81 84" version="1.1" xmlns="http://www.w3.org/2000/svg" xmlns:xlink="http://www.w3.org/1999/xlink">
    <!-- Generator: Sketch 51.1 (57501) - http://www.bohemiancoding.com/sketch -->
    <title>资管子系统</title>
    <desc>Created with Sketch.</desc>
    <defs>
        <linearGradient x1="0%" y1="0%" x2="100%" y2="113.214281%" id="linearGradient-1">
            <stop stop-color="#4285F4" offset="0%"></stop>
            <stop stop-color="#DEE7F7" stop-opacity="0.215692935" offset="100%"></stop>
        </linearGradient>
        <linearGradient x1="31.9534822%" y1="0%" x2="86.0673738%" y2="100%" id="linearGradient-2">
            <stop stop-color="#4989F4" offset="0%"></stop>
            <stop stop-color="#A8C5F5" offset="100%"></stop>
        </linearGradient>
        <linearGradient x1="0%" y1="0%" x2="124.859386%" y2="252.77475%" id="linearGradient-3">
            <stop stop-color="#4285F4" offset="0%"></stop>
            <stop stop-color="#DEE7F7" stop-opacity="0.215692935" offset="100%"></stop>
        </linearGradient>
        <linearGradient x1="0%" y1="0%" x2="109.045715%" y2="100%" id="linearGradient-4">
            <stop stop-color="#4285F4" stop-opacity="0.67017663" offset="0%"></stop>
            <stop stop-color="#DEE7F7" stop-opacity="0.215692935" offset="100%"></stop>
        </linearGradient>
    </defs>
    <g id="首页v0.3" stroke="none" stroke-width="1" fill="none" fill-rule="evenodd">
        <g id="首页" transform="translate(-215.000000, -696.000000)">
            <g id="Group-10" transform="translate(0.000000, 634.000000)">
                <g id="Group-9" transform="translate(215.314788, 62.000000)">
                    <g id="Group-6-Copy">
                        <path d="M36.1084633,22.0406572 L21.1580426,30.9033515 L21.1580426,48.3145862 L36.0610703,56.9182357 L50.4681623,48.3285899 L50.4681623,29.7793669 L36.1084633,22.0406572 Z" id="Path-82" stroke="url(#linearGradient-2)" stroke-width="3" fill="url(#linearGradient-1)"></path>
                        <g id="Group-5" transform="translate(0.489547, 0.000000)">
                            <rect id="Rectangle-14-Copy" fill="url(#linearGradient-3)" x="54.5069447" y="40.6926619" width="24.3863174" height="4.52351183" rx="2.26175591"></rect>
                            <rect id="Rectangle-14-Copy-2" fill="url(#linearGradient-3)" x="54.5069447" y="54.6078454" width="24.3863174" height="4.52351183" rx="2.26175591"></rect>
                            <rect id="Rectangle-14-Copy-4" fill="url(#linearGradient-3)" x="54.5069447" y="68.5230289" width="24.3863174" height="4.52351183" rx="2.26175591"></rect>
                            <path d="M68.8646962,19.1048297 L68.8646962,33.6998263" id="Path-79" stroke="#4285F4" stroke-width="3" stroke-linecap="round"></path>
                            <path d="M2.29702288,20.9334409 L34.8506238,37.2508832 L68.0765469,19.4420326 C68.1660423,19.3940638 68.2388117,19.3199837 68.2851756,19.2296464 C68.4112637,18.983971 68.314319,18.6825972 68.0686436,18.556509 L35.6687611,1.92789945 C35.2096013,1.6922446 34.6615398,1.70918891 34.2178144,1.97275808 L2.29702288,20.9334409 Z" id="Path-78" stroke="#4285F4" stroke-width="3"></path>
                            <path d="M1.5,21.8778626 L1.5,60.3937639 C1.5,60.9224656 1.77833294,61.4121229 2.23260757,61.682604 L33.4739075,80.2840864 C33.5512794,80.3301547 33.6396565,80.354473 33.7297049,80.354473 C34.0058473,80.354473 34.2297049,80.1306154 34.2297049,79.854473 L34.2297049,37.9964933 C34.2297049,37.8046225 34.119908,37.6296745 33.9471273,37.5462405 L1.5,21.8778626 Z" id="Path-77" stroke="#4285F4" stroke-width="3" fill="url(#linearGradient-4)"></path>
                            <path d="M33.6856116,80.8244069 L44.488461,73.6363636" id="Path-80" stroke="#4285F4" stroke-width="3" stroke-linecap="round"></path>
                        </g>
                    </g>
                </g>
            </g>
        </g>
    </g>
</svg>