<?xml version="1.0" encoding="UTF-8"?>
<svg width="12px" height="15px" viewBox="0 0 12 15" version="1.1" xmlns="http://www.w3.org/2000/svg" xmlns:xlink="http://www.w3.org/1999/xlink">
    <!-- Generator: Sketch 51.1 (57501) - http://www.bohemiancoding.com/sketch -->
    <title>银牌</title>
    <desc>Created with Sketch.</desc>
    <defs></defs>
    <g id="首页v0.3" stroke="none" stroke-width="1" fill="none" fill-rule="evenodd">
        <g id="业务管理" transform="translate(-179.000000, -712.000000)" fill-rule="nonzero">
            <g id="银牌" transform="translate(179.000000, 712.000000)">
                <path d="M6,3.13953488 C2.68603667,3.13953488 0,5.79433857 0,9.06976744 C0,12.3451963 2.68603667,15 6,15 C9.31396333,15 12,12.3451963 12,9.06976744 C12,5.79601141 9.31396333,3.13953488 6,3.13953488" id="Shape" fill="#B8B19C"></path>
                <path d="M8.95012063,8.83602663 L7.81965276,9.9766385 L8.08694712,11.5866172 C8.17718025,12.1266414 7.87753816,12.3638483 7.39913233,12.1030889 L5.9996676,11.342681 L4.60190537,12.1030889 C4.1320121,12.3588013 3.82215495,12.1384176 3.91409059,11.5866172 L4.18138495,9.9766385 L3.04921457,8.83770894 C2.66955443,8.45582267 2.77681267,8.08234799 3.31140139,8.0015967 L4.87430727,7.76607213 L5.57403964,6.30245513 C5.80898627,5.81121815 6.18524139,5.80112424 6.42359305,6.30245513 L7.12332542,7.76607213 L8.68623129,8.0015967 C9.21230745,8.08066567 9.33829333,8.44572876 8.95012063,8.83602663" id="Shape" fill="#FFFFFF"></path>
                <path d="M8.13209145,0.00160754474 C7.93903472,0.00160754474 7.78323455,0.131818669 7.73920406,0.303825956 L6.63505504,2.40167185 C6.63505504,2.40167185 8.99745978,2.53831315 10.3945809,3.83560176 L11.9390347,0.638195263 C11.9762913,0.538527489 12,0.453327618 12,0.366520201 C12,0.146286572 11.8154107,0 11.5867909,0 L8.13209145,0 L8.13209145,0.00160754474 Z M5.49026249,2.40327939 L4.38780694,0.305433501 C4.34208298,0.133426214 4.18797629,0.00321508949 3.99491956,0.00321508949 L0.413209145,0.00321508949 C0.184589331,0.00321508949 0,0.181652556 0,0.401886186 C0,0.488693602 0.033869602,0.564248205 0.082980525,0.630157539 L1.73073666,3.8372093 C3.12785775,2.54152824 5.49026249,2.40327939 5.49026249,2.40327939 Z" id="Shape" fill="#B8B19C"></path>
            </g>
        </g>
    </g>
</svg>