<?xml version="1.0" standalone="yes"?>
<svg xmlns="http://www.w3.org/2000/svg" width="22" height="18">
<path style="fill:#000000; stroke:none;" d="M0 0L0 18L22 18L22 0L0 0z"/>
<path style="fill:#6ca5ff; stroke:none;" d="M4 2L4 10C8.6551 8.89172 13.2389 9 18 9L18 2L4 2z"/>
<path style="fill:#95beff; stroke:none;" d="M5 7L10 5C7.38786 4.12671 6.45335 4.72383 5 7z"/>
<path style="fill:#b0ceff; stroke:none;" d="M10 4L10 8C10.6848 6.75165 10.7488 6.45158 11 5C11.9857 6.47852 12 6.20318 12 8C13.0154 6.86065 13.3087 6.38843 14 5L10 4z"/>
<path style="fill:#a5c8ff; stroke:none;" d="M15 4L14 8C15.6556 6.59569 15.7511 6.04646 15 4z"/>
<path style="fill:#6ca5ff; stroke:none;" d="M7.33333 5.66667C7.27778 5.72222 7.22222 6.77778 7.66667 6.33333C7.72223 6.27777 7.77777 5.22223 7.33333 5.66667z"/>
<path style="fill:#afcdff; stroke:none;" d="M8 5C7.45495 6.63516 7.63516 6.45495 6 7C8.03349 7.78516 8.78516 7.03349 8 5z"/>
<path style="fill:#5692f9; stroke:none;" d="M5 9C8.95868 10.6611 13.7366 10 18 10C14.0413 8.33887 9.26341 9 5 9z"/>
<path style="fill:#4583f4; stroke:none;" d="M4 10C8.21653 11.7693 13.4589 11 18 11C13.7835 9.23067 8.54114 10 4 10z"/>
<path style="fill:#4a71ae; stroke:none;" d="M5 11C8.69747 12.5515 13.0168 12 17 12C13.3025 10.4485 8.98316 11 5 11z"/>
</svg>
