<?xml version="1.0" encoding="UTF-8"?>
<svg width="13px" height="14px" viewBox="0 0 13 14" version="1.1" xmlns="http://www.w3.org/2000/svg" xmlns:xlink="http://www.w3.org/1999/xlink">
    <!-- Generator: Sketch 52.4 (67378) - http://www.bohemiancoding.com/sketch -->
    <title>ddpd</title>
    <desc>Created with Sketch.</desc>
    <g id="告警状态标识" stroke="none" stroke-width="1" fill="none" fill-rule="evenodd">
        <g id="sotn告警状态标识" transform="translate(-200.000000, -551.000000)" fill="#4E8CEE" fill-rule="nonzero">
            <g id="规划状态-copy-2" transform="translate(199.000000, 551.000000)">
                <g id="派单-copy" transform="translate(1.000000, 0.000000)">
                    <path d="M7,9.5 L7,9.5 C6.72385763,9.5 6.5,9.27614237 6.5,9 L6.5,5.5 L7.5,5.5 L7.5,9 C7.5,9.27614237 7.27614237,9.5 7,9.5 Z" id="Path-Copy-2" transform="translate(7.000000, 7.500000) rotate(-270.000000) translate(-7.000000, -7.500000) "></path>
                    <path d="M5.5,8 L5.5,8 C5.22385763,8 5,7.77614237 5,7.5 L5,4 L6,4 L6,7.5 C6,7.77614237 5.77614237,8 5.5,8 Z" id="Path"></path>
                    <path d="M10.6179048,0.884825397 L8.31735873,0.884825397 C8.14039365,0.353930159 7.65373968,0 7.07860317,0 L4.42412698,0 C3.84899048,0 3.36233651,0.353930159 3.18537143,0.884825397 L0.884825397,0.884825397 C0.398171429,0.884825397 0,1.28299683 0,1.76965079 L0,12.3875556 C0,12.8742095 0.398171429,13.272381 0.884825397,13.272381 L5.75136508,13.272381 L5.75136508,12.3875556 L0.884825397,12.3875556 L0.884825397,1.76965079 L3.09688889,1.76965079 L3.09688889,2.65447619 L8.40584127,2.65447619 L8.40584127,1.76965079 L10.6179048,1.76965079 L10.6179048,7.07860317 L11.5027302,7.07860317 L11.5027302,1.76965079 C11.5027302,1.28299683 11.1045587,0.884825397 10.6179048,0.884825397 Z M7.52101587,1.76965079 L3.98171429,1.76965079 L3.98171429,1.3272381 C3.98171429,1.06179048 4.15867937,0.884825397 4.42412698,0.884825397 L7.07860317,0.884825397 C7.34405079,0.884825397 7.52101587,1.06179048 7.52101587,1.3272381 L7.52101587,1.76965079 Z" id="Shape"></path>
                    <path d="M6.5,10.5045485 C6.5,10.7604484 6.66986287,10.9311422 6.92453807,10.9311422 L11.0009107,10.9311422 L9.59967859,12.3390281 C9.51461404,12.4245861 9.47250912,12.5525361 9.47250912,12.6380097 C9.47250912,12.7236523 9.51461404,12.8516022 9.59967859,12.9367379 C9.76962553,13.1070797 10.0243147,13.1070797 10.1947801,12.9367379 L12.3175966,10.8028544 C12.4872073,10.6320761 12.4872073,10.3761622 12.3175966,10.2050601 L10.1947661,8.07193682 C10.024637,7.90194699 9.77012994,7.90194699 9.59966458,8.07193682 C9.43022206,8.2426306 9.43022206,8.4985305 9.59966458,8.66930876 L11.0008966,10.0775325 L6.92452406,10.0775325 C6.66986287,10.0778704 6.5,10.2486487 6.5,10.5045485 Z" id="Path"></path>
                </g>
            </g>
        </g>
    </g>
</svg>