<?xml version="1.0" encoding="UTF-8"?>
<svg width="13px" height="14px" viewBox="0 0 13 14" version="1.1" xmlns="http://www.w3.org/2000/svg" xmlns:xlink="http://www.w3.org/1999/xlink">
    <!-- Generator: Sketch 52.4 (67378) - http://www.bohemiancoding.com/sketch -->
    <title>sgpdcg</title>
    <desc>Created with Sketch.</desc>
    <g id="告警状态标识" stroke="none" stroke-width="1" fill="none" fill-rule="evenodd">
        <g id="sotn告警状态标识" transform="translate(-696.000000, -551.000000)" fill="#4E8CEE" fill-rule="nonzero">
            <g id="规划状态-copy-7" transform="translate(695.000000, 551.000000)">
                <g id="派单-copy-6" transform="translate(1.000000, 0.000000)">
                    <path d="M10.6179048,0.884825397 L8.31735873,0.884825397 C8.14039365,0.353930159 7.65373968,0 7.07860317,0 L4.42412698,0 C3.84899048,0 3.36233651,0.353930159 3.18537143,0.884825397 L0.884825397,0.884825397 C0.398171429,0.884825397 0,1.28299683 0,1.76965079 L0,12.3875556 C0,12.8742095 0.398171429,13.272381 0.884825397,13.272381 L5.75136508,13.272381 L5.75136508,12.3875556 L0.884825397,12.3875556 L0.884825397,1.76965079 L3.09688889,1.76965079 L3.09688889,2.65447619 L8.40584127,2.65447619 L8.40584127,1.76965079 L10.6179048,1.76965079 L10.6179048,7.07860317 L11.5027302,7.07860317 L11.5027302,1.76965079 C11.5027302,1.28299683 11.1045587,0.884825397 10.6179048,0.884825397 Z M7.52101587,1.76965079 L3.98171429,1.76965079 L3.98171429,1.3272381 C3.98171429,1.06179048 4.15867937,0.884825397 4.42412698,0.884825397 L7.07860317,0.884825397 C7.34405079,0.884825397 7.52101587,1.06179048 7.52101587,1.3272381 L7.52101587,1.76965079 Z" id="Shape"></path>
                    <path d="M7.90505179,13.3817038 C7.95964089,13.488932 8.06234036,13.611627 8.24540991,13.611627 L11.3068681,13.611627 C11.9094707,13.611627 11.9364916,13.5116815 12.0088079,13.2445475 C12.1993169,12.3022208 12.5121068,10.7402921 12.5406245,10.5443429 C12.5322244,10.2825842 12.2914157,10.1483179 12.065888,10.109928 C12.0176101,10.1051191 10.8048762,9.99456177 10.0046716,9.92203597 C9.86039637,9.90891567 9.74948676,9.78394334 9.74948676,9.6338517 L9.74948676,7.50813142 C9.74948676,7.22801584 9.52150155,7 9.24152991,7 C8.96155826,7 8.73358422,7.2280274 8.73358422,7.50811986 L8.73473476,11.1496686 C8.73473476,11.2900848 8.63739702,11.4102482 8.50377826,11.4347318 C8.37086321,11.4592731 8.23907637,11.3809443 8.192474,11.2490246 L7.85433876,10.2889421 C7.72610406,10.0856063 7.43979887,10.0123291 7.23068025,10.1357524 C7.12330044,10.199042 7.04686228,10.3009064 7.01536212,10.4225958 C6.98421941,10.5425858 7.00081843,10.6677778 7.06159587,10.7752025 C7.07144433,10.7926138 7.07950477,10.8110441 7.08564546,10.8301921 L7.90505179,13.3817038 Z" id="Shape"></path>
                    <polygon id="Combined-Shape" points="5.12125 8.91629808 4.41421875 8.26365385 3 6.95807692 3.70703125 6.30543269 5.12125 7.61057692 7.949375 5 8.65625 5.65264423"></polygon>
                </g>
            </g>
        </g>
    </g>
</svg>