<?xml version="1.0" encoding="UTF-8"?>
<svg width="14px" height="15px" viewBox="0 0 14 15" version="1.1" xmlns="http://www.w3.org/2000/svg" xmlns:xlink="http://www.w3.org/1999/xlink">
    <!-- Generator: Sketch 51 (57462) - http://www.bohemiancoding.com/sketch -->
    <title>未备注</title>
    <desc>Created with Sketch.</desc>
    <defs></defs>
    <g id="行业客户告警监控" stroke="none" stroke-width="1" fill="none" fill-rule="evenodd">
        <g id="状态标识" transform="translate(-201.000000, -402.000000)">
            <g id="未备注" transform="translate(200.000000, 402.000000)">
                <g id="Group-6" transform="translate(1.700000, 0.750000)">
                    <path d="M1.94477028,13.492741 L4.07057734,13.198231 L3.24566953,7.60993746 C3.65010536,7.16832659 4.41140466,6.48804463 5.29200537,6.4551792 C7.10814285,6.38735284 8.86926543,6.50158832 10.5507118,5.16857401 C10.7649529,4.95928613 10.9887022,4.68905928 11.2248451,4.34698459 C11.6311732,3.75898158 12.1450711,2.82793317 12.5971896,1.40179245 C11.5105472,1.71183377 10.6456358,1.90383379 10.0112696,2.0062821 C9.63830686,2.06666634 9.32117898,2.12173481 9.03580803,2.14587926 C7.58415004,2.26891276 7.30421908,1.83099981 6.30726561,1.03751471 C5.89232823,0.707134751 5.36289873,0.488740672 4.75264197,0.309036286 C3.70521484,0.00045873607 2.15100117,-0.179261063 0.00948910997,0.277942777 L1.94477028,13.492741 Z" id="Shape" fill="#A6C5F6" fill-rule="nonzero"></path>
                    <path d="M8.88045844,5.70550303 C11.0881493,5.64329602 12.9161015,7.3304613 12.8481761,9.38837806 C12.7857284,11.2778991 11.1459792,12.7913016 9.11884083,12.847694 C6.91187003,12.9099019 5.08374519,11.2222268 5.15182402,9.164816 C5.21426924,7.27606984 6.85386807,5.76259399 8.88046006,5.70550299 Z" id="Path" stroke="#FFFFFF" stroke-width="0.5"></path>
                    <path d="M9,5.95384615 C7.01184375,5.95384615 5.4,7.44170192 5.4,9.27692308 C5.4,11.1121442 7.01184375,12.6 9,12.6 C10.9881563,12.6 12.6,11.1121442 12.6,9.27692308 C12.6,7.44170192 10.9882969,5.95384615 9,5.95384615 Z M9.45,10.1076923 L8.55,10.1076923 L8.55,7.2 L9.45,7.2 L9.45,10.1076923 Z M9.45,11.3538462 L8.55,11.3538462 L8.55,10.5230769 L9.45,10.5230769 L9.45,11.3538462 Z" id="Shape" fill="#4E8CEE" fill-rule="nonzero"></path>
                </g>
            </g>
        </g>
    </g>
</svg>