<?xml version="1.0" encoding="UTF-8"?>
<svg width="13px" height="14px" viewBox="0 0 13 14" version="1.1" xmlns="http://www.w3.org/2000/svg" xmlns:xlink="http://www.w3.org/1999/xlink">
    <!-- Generator: Sketch 52.4 (67378) - http://www.bohemiancoding.com/sketch -->
    <title>xtyzpd</title>
    <desc>Created with Sketch.</desc>
    <g id="告警状态标识" stroke="none" stroke-width="1" fill="none" fill-rule="evenodd">
        <g id="sotn告警状态标识" transform="translate(-399.000000, -551.000000)" fill="#4E8CEE" fill-rule="nonzero">
            <g id="规划状态-copy-4" transform="translate(398.000000, 551.000000)">
                <g id="派单-copy-3" transform="translate(1.000000, 0.000000)">
                    <polygon id="Path" transform="translate(5.500000, 6.500000) rotate(-90.000000) translate(-5.500000, -6.500000) " points="6 9 5 9 5 4 6 4"></polygon>
                    <path d="M10.6179048,0.884825397 L8.31735873,0.884825397 C8.14039365,0.353930159 7.65373968,0 7.07860317,0 L4.42412698,0 C3.84899048,0 3.36233651,0.353930159 3.18537143,0.884825397 L0.884825397,0.884825397 C0.398171429,0.884825397 0,1.28299683 0,1.76965079 L0,12.3875556 C0,12.8742095 0.398171429,13.272381 0.884825397,13.272381 L5.75136508,13.272381 L5.75136508,12.3875556 L0.884825397,12.3875556 L0.884825397,1.76965079 L3.09688889,1.76965079 L3.09688889,2.65447619 L8.40584127,2.65447619 L8.40584127,1.76965079 L10.6179048,1.76965079 L10.6179048,7.07860317 L11.5027302,7.07860317 L11.5027302,1.76965079 C11.5027302,1.28299683 11.1045587,0.884825397 10.6179048,0.884825397 Z M7.52101587,1.76965079 L3.98171429,1.76965079 L3.98171429,1.3272381 C3.98171429,1.06179048 4.15867937,0.884825397 4.42412698,0.884825397 L7.07860317,0.884825397 C7.34405079,0.884825397 7.52101587,1.06179048 7.52101587,1.3272381 L7.52101587,1.76965079 Z" id="Shape"></path>
                    <path d="M12.5925441,10.1953292 L12.7441619,10.3743449 L12.7441619,11.3881546 L12.5927672,11.5671304 L11.9256978,11.6793617 C11.9133307,11.7112523 11.9002883,11.7427087 11.8865849,11.773677 L12.2805167,12.3275955 L12.2612208,12.5608398 L11.5476312,13.2774788 L11.3131873,13.2968558 L10.7612763,12.9006687 C10.7314634,12.9138557 10.7010954,12.9264682 10.6701457,12.9385348 L10.5582434,13.6115133 L10.3792104,13.7632351 L9.37028895,13.7632351 L9.19126446,13.6115648 L9.07914274,12.938463 C9.04829808,12.9264103 9.01794259,12.9137866 8.98812796,12.9006015 L8.43538655,13.2969151 L8.20097172,13.2774249 L7.48797974,12.5607859 L7.4687458,12.3275837 L7.86273684,11.773675 C7.84897525,11.742578 7.83589508,11.7110131 7.82350966,11.6790251 L7.15567746,11.5677925 L7.00400424,11.3887675 L7.00400424,10.3750805 L7.15547622,10.1960891 L7.82133053,10.0844165 C7.8338342,10.0517934 7.84711477,10.0194732 7.86116087,9.98748377 L7.46873326,9.43563367 L7.48797974,9.20244918 L8.20097172,8.48581019 L8.43546648,8.46637727 L8.98312855,8.85949868 C9.01524898,8.84515615 9.04747004,8.83168429 9.07978851,8.81910485 L9.19050995,8.15178441 L9.36955342,8 L10.3785361,8 L10.5575583,8.15165654 L10.6688629,8.8195366 C10.7016331,8.8322176 10.7339116,8.84560123 10.7656408,8.85967554 L11.313275,8.46705187 L11.5476216,8.48648221 L12.2612112,9.20301394 L12.2804115,9.43641561 L11.8875031,9.98772768 C11.9014746,10.0196062 11.9147046,10.0518046 11.9271827,10.0842967 L12.5925441,10.1953292 Z M9.87421413,11.8406679 C10.4012003,11.8406679 10.8283464,11.4116752 10.8283464,10.8817042 C10.8283464,10.3515824 10.4012227,9.92256714 9.87421413,9.92256714 C9.3475013,9.92256714 8.92023349,10.3516988 8.92023349,10.8817042 C8.92023349,11.4115507 9.34753734,11.8406679 9.87421413,11.8406679 Z" id="Combined-Shape"></path>
                </g>
            </g>
        </g>
    </g>
</svg>