<?xml version="1.0" encoding="UTF-8"?>
<svg width="14px" height="15px" viewBox="0 0 14 15" version="1.1" xmlns="http://www.w3.org/2000/svg" xmlns:xlink="http://www.w3.org/1999/xlink">
    <!-- Generator: Sketch 51 (57462) - http://www.bohemiancoding.com/sketch -->
    <title>ybz</title>
    <desc>Created with Sketch.</desc>
    <defs></defs>
    <g id="行业客户告警监控" stroke="none" stroke-width="1" fill="none" fill-rule="evenodd">
        <g id="状态标识" transform="translate(-100.000000, -401.000000)">
            <g id="已备注" transform="translate(100.000000, 401.000000)">
                <g id="Group-5" transform="translate(0.700000, 0.750000)">
                    <path d="M1.94477028,13.492741 L4.07057734,13.198231 L3.24566953,7.60993746 C3.65010536,7.16832659 4.41140466,6.48804463 5.29200537,6.4551792 C7.10814285,6.38735284 8.86926543,6.50158832 10.5507118,5.16857401 C10.7649529,4.95928613 10.9887022,4.68905928 11.2248451,4.34698459 C11.6311732,3.75898158 12.1450711,2.82793317 12.5971896,1.40179245 C11.5105472,1.71183377 10.6456358,1.90383379 10.0112696,2.0062821 C9.63830686,2.06666634 9.32117898,2.12173481 9.03580803,2.14587926 C7.58415004,2.26891276 7.30421908,1.83099981 6.30726561,1.03751471 C5.89232823,0.707134751 5.36289873,0.488740672 4.75264197,0.309036286 C3.70521484,0.00045873607 2.15100117,-0.179261063 0.00948910997,0.277942777 L1.94477028,13.492741 Z" id="Shape" fill="#A6C5F6" fill-rule="nonzero"></path>
                    <path d="M8.88045844,5.70550303 C11.0881493,5.64329602 12.9161015,7.3304613 12.8481761,9.38837806 C12.7857284,11.2778991 11.1459792,12.7913016 9.11884083,12.847694 C6.91187003,12.9099019 5.08374519,11.2222268 5.15182402,9.164816 C5.21426924,7.27606984 6.85386807,5.76259399 8.88046006,5.70550299 Z" id="Path" stroke="#FFFFFF" stroke-width="0.5"></path>
                    <path d="M8.8875,5.95540385 C6.9890625,6.00888462 5.459625,7.42067308 5.4016875,9.17307692 C5.33854688,11.08125 7.04404688,12.6560769 9.11179688,12.5977933 C11.0109375,12.5449615 12.540375,11.1331731 12.5983125,9.38012019 C12.6613125,7.47142788 10.9559531,5.89712019 8.8875,5.95540385 Z M8.209125,11.1400529 L7.57279688,10.5526731 L6.3,9.37765385 L6.93632813,8.79027404 L8.209125,9.96490385 L10.7544375,7.61538462 L11.390625,8.20276442 L8.209125,11.1400529 Z" id="Shape" fill="#4E8CEE" fill-rule="nonzero"></path>
                </g>
            </g>
        </g>
    </g>
</svg>