<?xml version="1.0" encoding="UTF-8"?>
<svg width="14px" height="14px" viewBox="0 0 14 14" version="1.1" xmlns="http://www.w3.org/2000/svg" xmlns:xlink="http://www.w3.org/1999/xlink">
    <!-- Generator: Sketch 51 (57462) - http://www.bohemiancoding.com/sketch -->
    <title>已标准化</title>
    <desc>Created with Sketch.</desc>
    <defs></defs>
    <g id="行业客户告警监控" stroke="none" stroke-width="1" fill="none" fill-rule="evenodd">
        <g id="状态标识" transform="translate(-101.000000, -662.000000)" fill="#4E8CEE" fill-rule="nonzero">
            <g id="已标准化" transform="translate(101.000000, 661.544434)">
                <path d="M13.0270142,11.1698401 L13.1523242,11.3177942 L13.1523242,12.155694 L13.0271986,12.303615 L12.4758748,12.3963727 C12.4656535,12.4227298 12.4548742,12.4487282 12.4435486,12.474323 L12.7691278,12.9321291 L12.75318,13.1249023 L12.1634079,13.7171946 L11.9696432,13.7332095 L11.5134963,13.4057662 C11.4888564,13.4166652 11.4637576,13.4270892 11.4381781,13.4370621 L11.3456925,13.9932696 L11.1977241,14.1186656 L10.3638643,14.1186656 L10.215903,13.9933122 L10.1232359,13.4370027 C10.0977432,13.4270413 10.0726548,13.416608 10.0480135,13.4057107 L9.59118024,13.7332585 L9.39743958,13.7171501 L8.80816145,13.1248577 L8.79226487,12.9321194 L9.11789307,12.4743214 C9.10651931,12.4486201 9.09570872,12.4225321 9.08547234,12.3960945 L8.53351816,12.3041623 L8.40816231,12.1562006 L8.40816231,11.3184021 L8.53335183,11.1704682 L9.08367133,11.0781723 C9.09400544,11.0512097 9.10498164,11.0244976 9.11659056,10.9980587 L8.79225449,10.5419621 L8.80816145,10.3492383 L9.39743958,9.75694599 L9.5912463,9.74088495 L10.0438815,10.0657944 C10.0704286,10.0539405 10.0970589,10.0428062 10.1237697,10.0324095 L10.2152794,9.48087825 L10.3632564,9.35543051 L11.1971668,9.35543051 L11.3451262,9.48077256 L11.4371179,10.0327663 C11.4642021,10.043247 11.4908798,10.0543084 11.5171036,10.0659406 L11.9697157,9.7414425 L12.1634,9.75750141 L12.753172,10.3497051 L12.7690408,10.5426084 L12.4443074,10.9982603 C12.4558546,11.0246075 12.4667891,11.051219 12.4771021,11.0780733 L13.0270142,11.1698401 Z M10.7803516,12.5296901 C11.2158984,12.5296901 11.5689289,12.1751334 11.5689289,11.7371197 C11.5689289,11.2989813 11.2159169,10.944406 10.7803516,10.944406 C10.3450306,10.944406 9.99189961,11.2990775 9.99189961,11.7371197 C9.99189961,12.1750306 10.3450604,12.5296901 10.7803516,12.5296901 Z M8.57455439,2.5409847 L9.63840903,2.5409847 C10.7413332,2.5409847 11.3006365,3.16932009 11.3006365,4.39021415 L11.3006365,8.88716276 L11.1506365,9.03716276 L10.4735005,9.03716276 L10.3235005,8.88716276 L10.3235005,4.39020148 C10.3235005,3.74702019 10.1942683,3.60189552 9.63839773,3.60189552 L8.57453179,3.60189552 L8.57453179,5.19312127 L8.42453179,5.34312127 L3.61057402,5.34312127 L3.46057402,5.19312127 L3.46057402,3.60189552 L2.58428161,3.60189552 C2.02805294,3.60189552 1.89885111,3.74694941 1.89885111,4.39020148 L1.89885111,11.9463963 C1.89885111,12.5891616 2.02811176,12.7342337 2.58428161,12.7342337 L8.65071841,12.7342337 L8.80071841,12.8842337 L8.80071841,13.6455118 L8.65071841,13.7955118 L2.58429291,13.7955118 C1.48135909,13.7955118 0.922110599,13.1669944 0.922110599,11.9463963 L0.922110599,4.39020148 C0.922110599,3.16916658 1.4811753,2.54097203 2.58429291,2.54097203 L3.46058532,2.54097203 L3.46058532,2.26829868 L3.61058532,2.11829868 L4.4722626,2.11829868 C4.67821861,1.37677143 5.29876824,0.85 6.01737775,0.85 C6.73594059,0.85 7.35643338,1.37686136 7.5619425,2.11831135 L8.42455439,2.11831135 L8.57455439,2.26831135 L8.57455439,2.5409847 Z M7.59696636,3.17917151 L6.80689517,3.17917151 L6.65689517,3.02917151 L6.65689517,2.64879842 C6.65689517,2.23826419 6.36599912,1.91132876 6.01737775,1.91132876 C5.66861789,1.91132876 5.37775863,2.23821637 5.37775863,2.64879842 L5.37775863,3.02917151 L5.22775863,3.17917151 L4.43717893,3.17917151 L4.43717893,4.28184318 L7.59696636,4.28184318 L7.59696636,3.17917151 Z" id="Shape"></path>
                <polygon id="Combined-Shape" points="5.52148916 10.2184883 4.81445791 9.56584403 3.40023916 8.2602671 4.10727041 7.60762287 5.52148916 8.9127671 8.34961416 6.30219018 9.05648916 6.95483441"></polygon>
            </g>
        </g>
    </g>
</svg>