<?xml version="1.0" encoding="UTF-8"?>
<svg width="14px" height="14px" viewBox="0 0 14 14" version="1.1" xmlns="http://www.w3.org/2000/svg" xmlns:xlink="http://www.w3.org/1999/xlink">
    <!-- Generator: Sketch 51 (57462) - http://www.bohemiancoding.com/sketch -->
    <title>衍生关联</title>
    <desc>Created with Sketch.</desc>
    <defs></defs>
    <g id="行业客户告警监控" stroke="none" stroke-width="1" fill="none" fill-rule="evenodd">
        <g id="状态标识" transform="translate(-202.000000, -526.000000)" fill-rule="nonzero">
            <g id="衍生关联" transform="translate(201.500000, 525.500000)">
                <path d="M3.55650642,13.711518 C2.91737982,13.711518 2.27825321,13.4718456 1.79890826,12.9925006 C1.23967248,12.4332648 1,11.7941382 1,11.1550116 C1,10.515885 1.23967248,9.87675841 1.71901743,9.39741345 L5.51383165,5.60259923 C5.75650532,5.35992557 6.14995707,5.35992557 6.39263073,5.60259923 L6.39263073,5.60259923 C6.6353044,5.8452729 6.6353044,6.23872465 6.39263073,6.48139832 L2.59781651,10.2762125 C2.35814404,10.515885 2.27825321,10.8354483 2.27825321,11.1550116 C2.27825321,11.4745749 2.43803486,11.7941382 2.59781651,12.0338107 C2.83748899,12.2734832 3.15705229,12.353374 3.4766156,12.353374 C3.7961789,12.353374 4.1157422,12.1935924 4.35541468,12.0338107 L5.50271307,10.9438772 C5.7533738,10.7057495 6.14815619,10.71081 6.39263073,10.9552846 L6.39263073,10.9552846 C6.6353044,11.1979582 6.6353044,11.59141 6.39263073,11.8340836 L5.31410459,12.9126098 C4.83475963,13.4718456 4.19563303,13.711518 3.55650642,13.711518 Z M8.42984679,8.95801391 L8.42984679,8.95801391 C8.17637199,8.72566201 8.1592485,8.33182166 8.39160039,8.07834686 C8.39769405,8.07169924 8.40393141,8.0651848 8.41030807,8.05880814 L12.1048248,4.36429144 C12.5841697,3.88494648 12.5841697,3.08603823 12.1048248,2.60669327 C11.6254798,2.12734832 10.8265716,2.12734832 10.3472266,2.60669327 L9.28910715,3.66481273 C9.03199493,3.92192495 8.61799375,3.93092073 8.34995596,3.68521942 L8.34995596,3.68521942 C8.09648116,3.45286752 8.07935767,3.05902717 8.31170957,2.80555237 C8.31780322,2.79890475 8.32404058,2.7923903 8.33041724,2.78601365 L9.3885367,1.72789419 C10.3472266,0.769204281 11.9450431,0.769204281 12.9836239,1.72789419 C13.9423138,2.6865841 13.9423138,4.28440061 12.9836239,5.32298135 L9.36899797,8.93760722 C9.11188575,9.19471945 8.69788458,9.20371522 8.42984679,8.95801391 Z" id="Shape" fill="#A6C5F6"></path>
                <path d="M8.1502289,6.32161667 L4.4353055,2.60669327 C3.95596055,2.12734832 3.15705229,2.12734832 2.67770734,2.60669327 C2.43803486,2.84636575 2.27825321,3.16592905 2.27825321,3.48549235 C2.27825321,3.80505566 2.43803486,4.12461896 2.59781651,4.36429144 L3.56310074,5.27594876 C3.82532445,5.52360449 3.84017647,5.93589901 3.59645183,6.20178043 L3.59645183,6.20178043 C3.36409994,6.45525523 2.97025958,6.47237872 2.71678478,6.24002682 C2.71013716,6.23393317 2.70362272,6.22769581 2.69724606,6.22131915 L1.71901743,5.24309052 C1.23967248,4.76374557 1,4.12461896 1,3.48549235 C1,2.84636575 1.23967248,2.20723914 1.71901743,1.72789419 C2.67770734,0.769204281 4.27552385,0.769204281 5.31410459,1.72789419 L9.02902798,5.44281758 C9.27170165,5.68549125 9.27170165,6.078943 9.02902798,6.32161667 L9.02902798,6.32161667 C8.78635432,6.56429033 8.39290256,6.56429033 8.1502289,6.32161667 Z M11.2260257,13.711518 C10.5868991,13.711518 9.94777248,13.4718456 9.46842752,12.9925006 L5.6736133,9.19768639 C5.43093964,8.95501272 5.43093964,8.56156097 5.6736133,8.31888731 L5.6736133,8.31888731 C5.91628697,8.07621364 6.30973872,8.07621364 6.55241238,8.31888731 L10.3472266,12.1137015 C10.5868991,12.353374 10.9064624,12.4332648 11.2260257,12.4332648 C11.545589,12.4332648 11.8651523,12.2734832 12.1048248,12.1137015 C12.5841697,11.6343566 12.5841697,10.8354483 12.1048248,10.3561034 L10.9464078,9.19768639 C10.7037341,8.95501272 10.7037341,8.56156097 10.9464078,8.31888731 L10.9464078,8.31888731 C11.1890815,8.07621364 11.5825332,8.07621364 11.8252069,8.31888731 L12.9836239,9.47730428 C13.9423138,10.4359942 13.9423138,12.0338107 12.9836239,13.0723914 C12.5042789,13.4718456 11.8651523,13.711518 11.2260257,13.711518 Z" id="Shape" fill="#4E8CEE"></path>
            </g>
        </g>
    </g>
</svg>