<?xml version="1.0" encoding="UTF-8"?>
<svg width="13px" height="14px" viewBox="0 0 13 14" version="1.1" xmlns="http://www.w3.org/2000/svg" xmlns:xlink="http://www.w3.org/1999/xlink">
    <!-- Generator: Sketch 52.4 (67378) - http://www.bohemiancoding.com/sketch -->
    <title>zdpdcg</title>
    <desc>Created with Sketch.</desc>
    <g id="告警状态标识" stroke="none" stroke-width="1" fill="none" fill-rule="evenodd">
        <g id="sotn告警状态标识" transform="translate(-598.000000, -551.000000)" fill-rule="nonzero">
            <g id="规划状态-copy-6" transform="translate(597.000000, 551.000000)">
                <g id="派单-copy-5" transform="translate(1.000000, 0.000000)">
                    <path d="M10.6179048,0.884825397 L8.31735873,0.884825397 C8.14039365,0.353930159 7.65373968,0 7.07860317,0 L4.42412698,0 C3.84899048,0 3.36233651,0.353930159 3.18537143,0.884825397 L0.884825397,0.884825397 C0.398171429,0.884825397 0,1.28299683 0,1.76965079 L0,12.3875556 C0,12.8742095 0.398171429,13.272381 0.884825397,13.272381 L5.75136508,13.272381 L5.75136508,12.3875556 L0.884825397,12.3875556 L0.884825397,1.76965079 L3.09688889,1.76965079 L3.09688889,2.65447619 L8.40584127,2.65447619 L8.40584127,1.76965079 L10.6179048,1.76965079 L10.6179048,7.07860317 L11.5027302,7.07860317 L11.5027302,1.76965079 C11.5027302,1.28299683 11.1045587,0.884825397 10.6179048,0.884825397 Z M7.52101587,1.76965079 L3.98171429,1.76965079 L3.98171429,1.3272381 C3.98171429,1.06179048 4.15867937,0.884825397 4.42412698,0.884825397 L7.07860317,0.884825397 C7.34405079,0.884825397 7.52101587,1.06179048 7.52101587,1.3272381 L7.52101587,1.76965079 Z" id="Shape" fill="#4E8CEE"></path>
                    <polygon id="Combined-Shape" fill="#4E8CEE" points="5.12125 8.91629808 4.41421875 8.26365385 3 6.95807692 3.70703125 6.30543269 5.12125 7.61057692 7.949375 5 8.65625 5.65264423"></polygon>
                    <path d="M10,14 C8.3431,14 7,12.6569 7,11 C7,9.3431 8.3431,8 10,8 C11.6569,8 13,9.3431 13,11 C13,12.6569 11.6569,14 10,14 Z" id="Shape" fill="#4E8CEE"></path>
                    <path d="M10.6312836,11.4454574 L9.36871644,11.4454574 L9.06402177,12.169795 C8.99894411,12.3246386 8.82066333,12.397408 8.6658205,12.33233 C8.51097767,12.2672521 8.43820862,12.0889704 8.50328627,11.9341268 L9.45203614,9.67901027 C9.54481848,9.45848622 9.76075339,9.31506849 10,9.31506849 C10.2392466,9.31506849 10.4551815,9.45848622 10.5479639,9.67901027 L11.4967137,11.9341268 C11.5617914,12.0889704 11.4890223,12.2672521 11.3341795,12.33233 C11.1793367,12.397408 11.0010559,12.3246386 10.9359782,12.169795 L10.6312836,11.4454574 Z M10.3755468,10.8372814 L10,9.94508727 L9.62445318,10.8372814 L10.3755468,10.8372814 Z" id="Shape" fill="#FFFFFF"></path>
                </g>
            </g>
        </g>
    </g>
</svg>