<?xml version="1.0" encoding="UTF-8"?>
<svg width="24px" height="24px" viewBox="0 0 24 24" version="1.1" xmlns="http://www.w3.org/2000/svg" xmlns:xlink="http://www.w3.org/1999/xlink">
    <!-- Generator: Sketch 51.1 (57501) - http://www.bohemiancoding.com/sketch -->
    <title>重置密码icon－蓝色</title>
    <desc>Created with Sketch.</desc>
    <defs></defs>
    <g id="登录" stroke="none" stroke-width="1" fill="none" fill-rule="evenodd">
        <g id="忘记密码" transform="translate(-202.000000, -222.000000)" fill="#2C9CFA" fill-rule="nonzero">
            <g id="重置密码icon－蓝色" transform="translate(202.000000, 222.000000)">
                <path d="M14.6345535,10.3038778 C15.4949273,10.3038778 16.191911,11.0641568 16.191911,12.0025456 L16.191911,15.9651226 C16.191911,16.9027755 15.4949273,17.6630545 14.6345535,17.6630545 L8.92473322,17.6630545 C8.06509542,17.6630545 7.36737569,16.9027755 7.36737569,15.9651226 L7.36737569,12.0025456 C7.36737569,11.0648927 8.06435942,10.3038778 8.92473322,10.3038778 L10.3061888,10.3038778 L13.2501539,10.3038778 L14.6345535,10.3038778 Z M11.7671315,11.7832202 C10.9545971,11.7832202 10.2951489,12.4132288 10.2951489,13.1911715 C10.2951489,13.7107813 10.6984722,14.1082166 11.137123,14.3525657 L11.137123,16.18224 L12.397876,16.18224 L12.397876,14.3525657 C12.8365268,14.1082166 13.23985,13.7107813 13.23985,13.1911715 C13.2391141,12.4132287 12.5796659,11.7832202 11.7671315,11.7832202 Z M11.7781714,7.36359264 C10.3945078,7.36359264 10.3098688,8.52719484 10.3061888,8.8355752 L10.3061888,10.3031418 L8.82463838,10.3031418 L8.82463838,8.97762153 C8.82463838,8.97762153 8.82537438,5.88645821 11.7722834,5.88645821 C14.7199285,5.88645821 14.7199285,8.97762153 14.7199285,8.97762153 L14.7199285,10.3031418 L13.2501539,10.3031418 L13.2501539,8.83557518 C13.24721,8.53234678 13.1618349,7.36359264 11.7781714,7.36359264 Z M11.7781714,23.5554005 C5.27421653,23.5554005 0.00231109806,18.2834951 0.00231109806,11.7795403 C0.00231109806,5.27558545 5.27421656,0.00367999013 11.7781714,0.00367999013 C13.8742745,0.00367999013 15.8408432,0.554937449 17.545399,1.51540605 L18.640554,2.4708257e-08 L20.6012347,5.15414684 L15.4610717,4.3997558 L16.6747213,2.72022371 C15.2174586,1.93050509 13.5519103,1.4763985 11.7781714,1.4763985 C6.08748689,1.4763985 1.47429361,6.08959178 1.47429361,11.7802763 C1.47429361,17.4709608 6.08748689,22.084154 11.7781714,22.084154 C17.4688559,22.084154 22.0820491,17.4709608 22.0820491,11.7802763 C22.0820491,10.3907248 21.8031085,9.06741245 21.3048424,7.85744281 L22.6656902,7.29735345 C23.2353474,8.67954502 23.5540317,10.1920071 23.5540317,11.7802762 C23.5540317,18.2834951 18.2821262,23.5554005 11.7781714,23.5554005 Z" id="Shape"></path>
            </g>
        </g>
    </g>
</svg>