<?xml version="1.0" encoding="UTF-8"?>
<svg width="10px" height="10px" viewBox="0 0 10 10" version="1.1" xmlns="http://www.w3.org/2000/svg" xmlns:xlink="http://www.w3.org/1999/xlink">
    <!-- Generator: Sketch 52.4 (67378) - http://www.bohemiancoding.com/sketch -->
    <title>开通时间</title>
    <desc>Created with Sketch.</desc>
    <g id="门户v3" stroke="none" stroke-width="1" fill="none" fill-rule="evenodd">
        <g id="业务管理-专线详情" transform="translate(-938.000000, -145.000000)" fill="#FFFFFF">
            <g id="开通时间" transform="translate(938.000000, 145.000000)">
                <path d="M4.86850203,5.45454545 L6.94967979,5.45454545 C7.12823668,5.45454545 7.27272727,5.31327412 7.27272727,5.13903309 C7.27272727,4.96479206 7.12823669,4.82352072 6.94967979,4.82352072 L5.1915495,4.82352073 L5.1915495,3.04278509 C5.1915495,2.86854407 5.04705892,2.72727273 4.86850202,2.72727273 C4.68994514,2.72727273 4.54545455,2.86854407 4.54545455,3.04278509 L4.54545455,5.13888208 C4.54545455,5.13891228 4.54545455,5.13893242 4.54545455,5.13896261 C4.54545455,5.1389928 4.54545455,5.13901295 4.54545455,5.13904314 C4.54545456,5.31327412 4.68994515,5.45454545 4.86850203,5.45454545 Z" id="Path"></path>
                <path d="M8.07969014,1.06023094 C7.02712996,0.238030243 5.71748284,-0.124699965 4.39166736,0.038055943 C3.06621909,0.200811851 1.88334828,0.870089005 1.06117263,1.9224724 C0.938951911,2.07907878 0.966698571,2.30503941 1.12333297,2.42723828 C1.27996737,2.54943715 1.50579629,2.52116769 1.62801702,2.36526117 C2.33183904,1.46422952 3.34471849,0.891164891 4.47946296,0.751756537 C5.6159631,0.613059498 6.73596213,0.923117184 7.63716644,1.62698543 C9.49715683,3.07966162 9.82834964,5.77487461 8.37540212,7.63506011 C6.92211036,9.49507351 4.22729881,9.82655128 2.36625271,8.37316376 C1.09840916,7.38292956 0.496083935,5.78505115 0.794618761,4.20278748 C0.831499561,4.00755152 0.703300333,3.81950914 0.508029462,3.78264641 C0.314514264,3.74718339 0.124510434,3.87429269 0.0879853658,4.06935655 C-0.260764267,5.91725447 0.442702021,7.78357801 1.92374046,8.93989527 C2.8115878,9.6334034 3.88241625,10 4.99188119,10 C5.1973419,10 5.40420258,9.98771242 5.61140751,9.96208175 C6.93721151,9.79915376 8.12008231,9.1298766 8.94224649,8.0774932 C10.6396355,5.90496689 10.2526051,2.75713277 8.07969014,1.06023094 Z" id="Path"></path>
            </g>
        </g>
    </g>
</svg>