<?xml version="1.0" encoding="UTF-8"?>
<svg width="47px" height="47px" viewBox="0 0 47 47" version="1.1" xmlns="http://www.w3.org/2000/svg" xmlns:xlink="http://www.w3.org/1999/xlink">
    <!-- Generator: Sketch 51.1 (57501) - http://www.bohemiancoding.com/sketch -->
    <title>进行中</title>
    <desc>Created with Sketch.</desc>
    <defs></defs>
    <g id="首页v0.3" stroke="none" stroke-width="1" fill="none" fill-rule="evenodd">
        <g id="故障管理-割接概览详情" transform="translate(-660.000000, -386.000000)" fill="#59ADF4" fill-rule="nonzero">
            <g id="进行中" transform="translate(660.000000, 386.000000)">
                <path d="M18.2222222,23.6111112 C18.2222222,25.0531881 17.053188,26.2222223 15.6111111,26.2222223 C14.1690343,26.2222223 13,25.0531881 13,23.6111112 C13,22.1690344 14.1690343,21.0000001 15.6111111,21.0000001 C17.053188,21.0000001 18.2222222,22.1690344 18.2222222,23.6111112 Z M26.0555556,23.6111112 C26.0555556,24.5439714 25.5578806,25.4059698 24.75,25.8723998 C23.9421194,26.3388299 22.9467695,26.3388299 22.1388889,25.8723998 C21.3310083,25.4059698 20.8333333,24.5439714 20.8333333,23.6111112 C20.8333333,22.678251 21.3310083,21.8162527 22.1388889,21.3498226 C22.9467695,20.8833925 23.9421194,20.8833925 24.7500001,21.3498226 C25.5578807,21.8162527 26.0555556,22.678251 26.0555556,23.6111112 Z M33.8888889,23.6111112 C33.8888889,25.0531881 32.7198547,26.2222223 31.2777778,26.2222223 C29.835701,26.2222223 28.6666667,25.0531881 28.6666667,23.6111112 C28.6666667,22.1690344 29.835701,21.0000001 31.2777778,21.0000001 C32.7198547,21.0000001 33.8888889,22.1690344 33.8888889,23.6111112 Z" id="Shape"></path>
                <path d="M40.0622391,6.87358675 C35.629799,2.44109105 29.7365029,0 23.4679407,0 C17.1994339,0 11.3061379,2.44109105 6.87364221,6.87358675 C2.44114651,11.3060824 0,17.1993785 0,23.4679407 C0,29.7364475 2.44114657,35.6297435 6.87364227,40.0622392 C11.306138,44.494846 17.199434,46.9358815 23.4679407,46.9358815 C29.736503,46.9358815 35.629799,44.494846 40.0622392,40.0622392 C44.494846,35.629688 46.9358815,29.736392 46.9358815,23.4679407 C46.9358259,17.1993785 44.4947904,11.3060824 40.0622391,6.87358675 Z M23.4679407,42.8796517 C12.7642725,42.8796517 4.05628529,34.1715534 4.05628529,23.4679407 C4.05628529,12.7642725 12.764328,4.05622982 23.4679407,4.05622982 C34.1715534,4.05622982 42.8795961,12.7642725 42.8795961,23.4679407 C42.8795961,34.1715534 34.1714978,42.8796517 23.4679407,42.8796517 Z" id="Shape"></path>
            </g>
        </g>
    </g>
</svg>