<?xml version="1.0" encoding="UTF-8"?>
<svg width="47px" height="47px" viewBox="0 0 47 47" version="1.1" xmlns="http://www.w3.org/2000/svg" xmlns:xlink="http://www.w3.org/1999/xlink">
    <!-- Generator: Sketch 51.1 (57501) - http://www.bohemiancoding.com/sketch -->
    <title>chenggong-2</title>
    <desc>Created with Sketch.</desc>
    <defs></defs>
    <g id="首页v0.3" stroke="none" stroke-width="1" fill="none" fill-rule="evenodd">
        <g id="故障管理-割接概览详情" transform="translate(-1070.000000, -356.000000)" fill="#88D068" fill-rule="nonzero">
            <g id="chenggong-2" transform="translate(1070.000000, 356.000000)">
                <path d="M23.5,42.9715303 C34.2537424,42.9715303 42.9715303,34.2537424 42.9715303,23.5 C42.9715303,12.7462576 34.2537424,4.0284697 23.5,4.0284697 C12.7462576,4.0284697 4.0284697,12.7462576 4.0284697,23.5 C4.0284697,34.2537424 12.7462576,42.9715303 23.5,42.9715303 Z M23.5,47 C10.5213535,47 0,36.4786465 0,23.5 C0,10.5213535 10.5213535,0 23.5,0 C36.4786465,0 47,10.5213535 47,23.5 C47,36.4786465 36.4786465,47 23.5,47 Z" id="Shape"></path>
                <path d="M32.6362545,16.5381927 C33.4454693,15.7819712 34.7076167,15.8282755 35.4603725,16.6418009 C36.2131283,17.4553263 36.1735209,18.7302569 35.3717488,19.4945221 L22.699904,31.4550202 C21.9299966,32.1816599 20.734317,32.1816599 19.9644096,31.4550202 L13.6282512,25.4748904 C12.8264791,24.7106252 12.7868717,23.4356946 13.5396275,22.6221692 C14.2923833,21.8086438 15.5545307,21.7623395 16.3637455,22.518561 L21.3321568,27.2081577 L32.6362545,16.5381927 Z" id="Shape"></path>
            </g>
        </g>
    </g>
</svg>