<?xml version="1.0" encoding="UTF-8"?>
<svg width="13px" height="14px" viewBox="0 0 13 14" version="1.1" xmlns="http://www.w3.org/2000/svg" xmlns:xlink="http://www.w3.org/1999/xlink">
    <!-- Generator: Sketch 52.4 (67378) - http://www.bohemiancoding.com/sketch -->
    <title>rgzzpd</title>
    <desc>Created with Sketch.</desc>
    <g id="告警状态标识" stroke="none" stroke-width="1" fill="none" fill-rule="evenodd">
        <g id="sotn告警状态标识" transform="translate(-299.000000, -551.000000)" fill="#4E8CEE" fill-rule="nonzero">
            <g id="规划状态-copy-3" transform="translate(298.000000, 551.000000)">
                <g id="派单-copy-2" transform="translate(1.000000, 0.000000)">
                    <path d="M5,6 L5,4 L6,4 L6,6 L8,6 L8,7 L6,7 L6,9 L5,9 L5,7 L3,7 L3,6 L5,6 Z" id="Combined-Shape" transform="translate(5.500000, 6.500000) rotate(-315.000000) translate(-5.500000, -6.500000) "></path>
                    <path d="M10.6179048,0.884825397 L8.31735873,0.884825397 C8.14039365,0.353930159 7.65373968,0 7.07860317,0 L4.42412698,0 C3.84899048,0 3.36233651,0.353930159 3.18537143,0.884825397 L0.884825397,0.884825397 C0.398171429,0.884825397 0,1.28299683 0,1.76965079 L0,12.3875556 C0,12.8742095 0.398171429,13.272381 0.884825397,13.272381 L5.75136508,13.272381 L5.75136508,12.3875556 L0.884825397,12.3875556 L0.884825397,1.76965079 L3.09688889,1.76965079 L3.09688889,2.65447619 L8.40584127,2.65447619 L8.40584127,1.76965079 L10.6179048,1.76965079 L10.6179048,7.07860317 L11.5027302,7.07860317 L11.5027302,1.76965079 C11.5027302,1.28299683 11.1045587,0.884825397 10.6179048,0.884825397 Z M7.52101587,1.76965079 L3.98171429,1.76965079 L3.98171429,1.3272381 C3.98171429,1.06179048 4.15867937,0.884825397 4.42412698,0.884825397 L7.07860317,0.884825397 C7.34405079,0.884825397 7.52101587,1.06179048 7.52101587,1.3272381 L7.52101587,1.76965079 Z" id="Shape"></path>
                    <path d="M7.46456193,12.960604 C7.51915104,13.0678321 7.6218505,13.1905271 7.80492006,13.1905271 L10.8663783,13.1905271 C11.4689808,13.1905271 11.4960017,13.0905817 11.5683181,12.8234477 C11.758827,11.8811209 12.0716169,10.3191922 12.1001346,10.1232431 C12.0917346,9.86148435 11.8509259,9.72721799 11.6253981,9.6888281 C11.5771202,9.68401925 10.3643864,9.57346191 9.56418173,9.50093611 C9.41990652,9.48781581 9.30899691,9.36284348 9.30899691,9.21275183 L9.30899691,7.08703155 C9.30899691,6.80691597 9.0810117,6.57890014 8.80104005,6.57890014 C8.52106841,6.57890014 8.29309437,6.80692753 8.29309437,7.08701999 L8.2942449,10.7285688 C8.2942449,10.8689849 8.19690717,10.9891484 8.0632884,11.0136319 C7.93037336,11.0381732 7.79858651,10.9598444 7.75198415,10.8279247 L7.41384891,9.8678422 C7.28561421,9.66450641 6.99930902,9.59122923 6.79019039,9.71465255 C6.68281059,9.77794212 6.60637243,9.87980653 6.57487227,10.0014959 C6.54372956,10.121486 6.56032858,10.2466779 6.62110602,10.3541026 C6.63095448,10.371514 6.63901492,10.3899443 6.64515561,10.4090923 L7.46456193,12.960604 Z" id="Shape"></path>
                </g>
            </g>
        </g>
    </g>
</svg>