<?xml version="1.0" encoding="UTF-8"?>
<svg width="13px" height="14px" viewBox="0 0 13 14" version="1.1" xmlns="http://www.w3.org/2000/svg" xmlns:xlink="http://www.w3.org/1999/xlink">
    <!-- Generator: Sketch 51 (57462) - http://www.bohemiancoding.com/sketch -->
    <title>wbzh</title>
    <desc>Created with Sketch.</desc>
    <defs></defs>
    <g id="行业客户告警监控" stroke="none" stroke-width="1" fill="none" fill-rule="evenodd">
        <g id="状态标识" transform="translate(-201.000000, -662.000000)" fill="#4E8CEE" fill-rule="nonzero">
            <g id="未标准化" transform="translate(199.500000, 661.544434)">
                <path d="M14.0270142,11.1698401 L14.1523242,11.3177942 L14.1523242,12.155694 L14.0271986,12.303615 L13.4758748,12.3963727 C13.4656535,12.4227298 13.4548742,12.4487282 13.4435486,12.474323 L13.7691278,12.9321291 L13.75318,13.1249023 L13.1634079,13.7171946 L12.9696432,13.7332095 L12.5134963,13.4057662 C12.4888564,13.4166652 12.4637576,13.4270892 12.4381781,13.4370621 L12.3456925,13.9932696 L12.1977241,14.1186656 L11.3638643,14.1186656 L11.215903,13.9933122 L11.1232359,13.4370027 C11.0977432,13.4270413 11.0726548,13.416608 11.0480135,13.4057107 L10.5911802,13.7332585 L10.3974396,13.7171501 L9.80816145,13.1248577 L9.79226487,12.9321194 L10.1178931,12.4743214 C10.1065193,12.4486201 10.0957087,12.4225321 10.0854723,12.3960945 L9.53351816,12.3041623 L9.40816231,12.1562006 L9.40816231,11.3184021 L9.53335183,11.1704682 L10.0836713,11.0781723 C10.0940054,11.0512097 10.1049816,11.0244976 10.1165906,10.9980587 L9.79225449,10.5419621 L9.80816145,10.3492383 L10.3974396,9.75694599 L10.5912463,9.74088495 L11.0438815,10.0657944 C11.0704286,10.0539405 11.0970589,10.0428062 11.1237697,10.0324095 L11.2152794,9.48087825 L11.3632564,9.35543051 L12.1971668,9.35543051 L12.3451262,9.48077256 L12.4371179,10.0327663 C12.4642021,10.043247 12.4908798,10.0543084 12.5171036,10.0659406 L12.9697157,9.7414425 L13.1634,9.75750141 L13.753172,10.3497051 L13.7690408,10.5426084 L13.4443074,10.9982603 C13.4558546,11.0246075 13.4667891,11.051219 13.4771021,11.0780733 L14.0270142,11.1698401 Z M11.7803516,12.5296901 C12.2158984,12.5296901 12.5689289,12.1751334 12.5689289,11.7371197 C12.5689289,11.2989813 12.2159169,10.944406 11.7803516,10.944406 C11.3450306,10.944406 10.9918996,11.2990775 10.9918996,11.7371197 C10.9918996,12.1750306 11.3450604,12.5296901 11.7803516,12.5296901 Z M9.57455439,2.5409847 L10.638409,2.5409847 C11.7413332,2.5409847 12.3006365,3.16932009 12.3006365,4.39021415 L12.3006365,8.88716276 L12.1506365,9.03716276 L11.4735005,9.03716276 L11.3235005,8.88716276 L11.3235005,4.39020148 C11.3235005,3.74702019 11.1942683,3.60189552 10.6383977,3.60189552 L9.57453179,3.60189552 L9.57453179,5.19312127 L9.42453179,5.34312127 L4.61057402,5.34312127 L4.46057402,5.19312127 L4.46057402,3.60189552 L3.58428161,3.60189552 C3.02805294,3.60189552 2.89885111,3.74694941 2.89885111,4.39020148 L2.89885111,11.9463963 C2.89885111,12.5891616 3.02811176,12.7342337 3.58428161,12.7342337 L9.65071841,12.7342337 L9.80071841,12.8842337 L9.80071841,13.6455118 L9.65071841,13.7955118 L3.58429291,13.7955118 C2.48135909,13.7955118 1.9221106,13.1669944 1.9221106,11.9463963 L1.9221106,4.39020148 C1.9221106,3.16916658 2.4811753,2.54097203 3.58429291,2.54097203 L4.46058532,2.54097203 L4.46058532,2.26829868 L4.61058532,2.11829868 L5.4722626,2.11829868 C5.67821861,1.37677143 6.29876824,0.85 7.01737775,0.85 C7.73594059,0.85 8.35643338,1.37686136 8.5619425,2.11831135 L9.42455439,2.11831135 L9.57455439,2.26831135 L9.57455439,2.5409847 Z M8.59696636,3.17917151 L7.80689517,3.17917151 L7.65689517,3.02917151 L7.65689517,2.64879842 C7.65689517,2.23826419 7.36599912,1.91132876 7.01737775,1.91132876 C6.66861789,1.91132876 6.37775863,2.23821637 6.37775863,2.64879842 L6.37775863,3.02917151 L6.22775863,3.17917151 L5.43717893,3.17917151 L5.43717893,4.28184318 L8.59696636,4.28184318 L8.59696636,3.17917151 Z" id="Shape"></path>
                <polygon id="Shape" points="7.5 10.902832 6.5 10.902832 6.5 9.97975511 7.5 9.97975511"></polygon>
                <polygon id="Path" points="7.5 9.0997174 6.5 9.0997174 6.5 5.86894817 7.5 5.86894817"></polygon>
            </g>
        </g>
    </g>
</svg>