<?xml version="1.0" encoding="UTF-8"?>
<svg width="14px" height="14px" viewBox="0 0 14 14" version="1.1" xmlns="http://www.w3.org/2000/svg" xmlns:xlink="http://www.w3.org/1999/xlink">
    <!-- Generator: Sketch 51 (57462) - http://www.bohemiancoding.com/sketch -->
    <title>wglgj</title>
    <desc>Created with Sketch.</desc>
    <defs></defs>
    <g id="行业客户告警监控" stroke="none" stroke-width="1" fill="none" fill-rule="evenodd">
        <g id="状态标识" transform="translate(-100.000000, -526.000000)" fill-rule="nonzero">
            <g id="无关联告警" transform="translate(99.000000, 525.500000)">
                <path d="M9.25284692,9.72792666 C9.48906171,9.96133414 9.49129514,10.3425072 9.25772121,10.578084 L7.12093896,12.7395969 C6.612124,13.2545155 5.93164135,13.5386202 5.20688527,13.5386202 C4.48261262,13.5386202 3.80216215,13.2544985 3.29311565,12.7396264 C2.24279168,11.6771055 2.24287744,9.94979223 3.29336438,8.88710967 L5.42976809,6.72572192 C5.66298817,6.48929606 6.04344529,6.48731322 6.2800209,6.72068114 C6.51621402,6.95406721 6.51844609,7.33488402 6.28490437,7.5708292 L4.14834866,9.73237089 C3.55948769,10.3281465 3.55948769,11.2988063 4.148356,11.8943663 C4.43022533,12.1795727 4.80555756,12.3362422 5.20688527,12.3362422 C5.60867941,12.3362422 5.98398954,12.1796062 6.26569883,11.8943366 L8.40269064,9.73286961 C8.63591916,9.49654105 9.01630395,9.49459094 9.25284692,9.72792666 Z M10.5582183,9.26274941 C10.4439775,9.37815994 10.2900998,9.44106656 10.1309662,9.44106656 C9.97407014,9.44106656 9.82246398,9.37993844 9.70823186,9.26726567 C9.47206033,9.03390095 9.46982962,8.65344018 9.70335745,8.41710842 L11.8399041,6.25583087 C12.4287651,5.66005525 12.4287651,4.68939546 11.8398967,4.09383546 C11.558007,3.80860841 11.1826661,3.65195956 10.7811125,3.65195956 C10.3795443,3.65195956 10.0042428,3.80861622 9.72255392,4.09386513 L7.58539762,6.25549847 C7.3519785,6.49132398 6.97161842,6.4934302 6.73540583,6.26002013 C6.49921271,6.02663406 6.49698064,5.64581725 6.73054061,5.40985361 L8.8672724,3.24864673 C9.37591928,2.73362095 10.056347,2.44958151 10.7811125,2.44958151 C11.5058317,2.44958151 12.1862491,2.73358626 12.6951371,3.24857537 C13.7454611,4.31109628 13.7453753,6.03840952 12.6948819,7.10109862 L10.5582183,9.26274941 Z" id="Shape" fill="#A6C5F6"></path>
                <path d="M3.20714115,4.12946663 C2.9736461,3.89316804 2.97587685,3.51245231 3.21191484,3.27921965 C3.44796791,3.04557118 3.82878475,3.04780326 4.06215638,3.28398177 L5.54819684,4.78761313 C5.7818453,5.0236662 5.77961322,5.40448303 5.54328077,5.63800666 C5.42921665,5.75051358 5.27764909,5.81141502 5.12068577,5.81141502 C4.96133787,5.81141502 4.80745063,5.74862629 4.69325813,5.63292037 L3.20714115,4.12946663 Z M7.0553938,4.24639805 C6.72347517,4.24639805 6.45420477,3.97712765 6.45420477,3.64520902 L6.45420477,2.05043829 C6.45420477,1.71851966 6.72347517,1.44924927 7.0553938,1.44924927 C7.38731243,1.44924927 7.65658282,1.71851966 7.65658282,2.05043829 L7.65658282,3.64520902 C7.65658282,3.97712765 7.38731243,4.24639805 7.0553938,4.24639805 Z M4.10930789,7.10085156 C4.10930789,7.43277019 3.8400375,7.70204058 3.50811887,7.70204058 L1.93145025,7.70204058 C1.59953162,7.70204058 1.33026123,7.43277019 1.33026123,7.10085156 C1.33026123,6.76893293 1.59953162,6.49966254 1.93145025,6.49966254 L3.50811887,6.49966254 C3.8400375,6.49966254 4.10930789,6.76893293 4.10930789,7.10085156 Z M12.753127,11.834921 C12.986622,12.0712196 12.9843913,12.4519353 12.7480804,12.6854376 C12.6340049,12.7979558 12.4826765,12.8588459 12.3257404,12.8588459 C12.1661486,12.8588459 12.0122128,12.7960647 11.8981118,12.6804058 L10.4120713,11.1767745 C10.1784228,10.9407214 10.1806549,10.5599046 10.4169782,10.32639 C10.6535787,10.0929922 11.0340205,10.0950449 11.2670722,10.3315301 L12.753127,11.834921 Z M8.90487433,11.7179896 C9.23679296,11.7179896 9.50606335,11.98726 9.50606335,12.3191786 L9.50606335,13.9139493 C9.50606335,14.245868 9.23679296,14.5151384 8.90487433,14.5151384 C8.57295569,14.5151384 8.3036853,14.245868 8.3036853,13.9139493 L8.3036853,12.3191786 C8.3036853,11.98726 8.57295569,11.7179896 8.90487433,11.7179896 Z M14.0287159,8.26234703 C14.3606345,8.26234703 14.6299049,8.53161743 14.6299049,8.86353606 C14.6299049,9.19545469 14.3606345,9.46472508 14.0287159,9.46472508 L12.4520473,9.46472508 C12.1201286,9.46472508 11.8508582,9.19545469 11.8508582,8.86353606 C11.8508582,8.53161743 12.1201286,8.26234703 12.4520473,8.26234703 L14.0287159,8.26234703 Z" id="Combined-Shape" fill="#4E8CEE"></path>
            </g>
        </g>
    </g>
</svg>