<?xml version="1.0" encoding="UTF-8"?>
<svg width="14px" height="15px" viewBox="0 0 14 15" version="1.1" xmlns="http://www.w3.org/2000/svg" xmlns:xlink="http://www.w3.org/1999/xlink">
    <!-- Generator: Sketch 51 (57462) - http://www.bohemiancoding.com/sketch -->
    <title>未确认告警</title>
    <desc>Created with Sketch.</desc>
    <defs></defs>
    <g id="行业客户告警监控" stroke="none" stroke-width="1" fill="none" fill-rule="evenodd">
        <g id="状态标识" transform="translate(-202.000000, -270.000000)">
            <g id="未确认告警" transform="translate(201.000000, 270.000000)">
                <g id="Group-4" transform="translate(1.560000, 0.600000)">
                    <path d="M6.07671343,11.6358581 L0,11.6358581 L0,10.9568981 L1.39104,9.56585813 L1.39104,6.13793813 C1.39104,5.05601272 1.6615173,4.12314204 2.20248,3.33929813 C2.75448276,2.5333741 3.52175509,2.00897934 4.50432,1.76609813 L4.50432,1.28585813 C4.50432,0.99881669 4.60367901,0.753179146 4.8024,0.548938125 C5.00112099,0.344697104 5.24399856,0.242578125 5.53104,0.242578125 C5.81808144,0.242578125 6.06371898,0.344697104 6.26796,0.548938125 C6.47220102,0.753179146 6.57432,0.99881669 6.57432,1.28585813 L6.57432,1.76609813 C7.54584486,2.00897934 8.30759724,2.53889404 8.8596,3.35585813 C9.25523839,3.92913008 9.5061976,4.57916198 9.6124808,5.30596472 C9.43470796,5.28954139 9.25372095,5.28357394 9.07025703,5.28874348 C6.88090298,5.35041964 5.1170945,6.97855055 5.05027865,8.99949275 C5.01694951,10.0067328 5.41093754,10.9334338 6.07671343,11.6358581 Z M5.53104,13.7058581 C5.14463807,13.7058581 4.81620135,13.5733794 4.54572,13.3084181 C4.27523865,13.0434568 4.14,12.7233 4.14,12.3479381 L6.92208,12.3479381 C6.92208,12.7233 6.78408138,13.0434568 6.50808,13.3084181 C6.23207862,13.5733794 5.90640188,13.7058581 5.53104,13.7058581 Z" id="告警钟" fill="#A6C5F6"></path>
                    <path d="M9.2,5.72163324 C7.1676625,5.72163324 5.52,7.24255247 5.52,9.11855632 C5.52,10.9945602 7.1676625,12.5154794 9.2,12.5154794 C11.2323375,12.5154794 12.88,10.9945602 12.88,9.11855632 C12.88,7.24255247 11.2324813,5.72163324 9.2,5.72163324 Z M9.66,9.96778709 L8.74,9.96778709 L8.74,6.99547939 L9.66,6.99547939 L9.66,9.96778709 Z M9.66,11.2416332 L8.74,11.2416332 L8.74,10.3924025 L9.66,10.3924025 L9.66,11.2416332 Z" id="Shape-Copy-2" fill="#4E8CEE" fill-rule="nonzero"></path>
                </g>
            </g>
        </g>
    </g>
</svg>