<?xml version="1.0" encoding="UTF-8"?>
<svg width="13px" height="14px" viewBox="0 0 13 14" version="1.1" xmlns="http://www.w3.org/2000/svg" xmlns:xlink="http://www.w3.org/1999/xlink">
    <!-- Generator: Sketch 51 (57462) - http://www.bohemiancoding.com/sketch -->
    <title>ypd</title>
    <desc>Created with Sketch.</desc>
    <defs></defs>
    <g id="行业客户告警监控" stroke="none" stroke-width="1" fill="none" fill-rule="evenodd">
        <g id="状态标识" transform="translate(-506.000000, -663.000000)">
            <g id="ypd" transform="translate(506.000000, 663.000000)">
                <path d="M10.6333337,0 L0.36666626,0 C0.164180927,0 0,0.176379443 0,0.393938599 L0,12.6060614 C0,12.8235812 0.164180927,13 0.36666626,13 L10.6333337,13 C10.8357946,13 11,12.8235812 11,12.6060614 L11,0.393938599 C11,0.176379443 10.8358069,0 10.6333337,0 Z M6.3571496,1.430286 L8.01633887,1.430286 L8.01633887,3.21564199 L6.3571496,3.21564199 L6.3571496,1.430286 Z M4.01060776,1.430286 L5.66979703,1.430286 L5.66979703,3.21564199 L4.01060776,3.21564199 L4.01060776,1.430286 Z M1.49904167,1.430286 L3.15823094,1.430286 L3.15823094,3.21564199 L1.49904167,3.21564199 L1.49904167,1.430286 Z M9.8717557,11.6088978 L1.49899278,11.6088978 L1.49899278,4.53914437 L9.8717557,4.53914437 L9.8717557,11.6088978 Z" id="Shape" fill="#A6C5F6" fill-rule="nonzero"></path>
                <polygon id="Shape" fill="#A6C5F6" fill-rule="nonzero" points="2 9 7 9 7 9.67116373 2 9.67116373"></polygon>
                <polygon id="Shape" fill="#A6C5F6" fill-rule="nonzero" points="2 5 9 5 9 5.671194 2 5.671194 2 5"></polygon>
                <polygon id="Shape" fill="#A6C5F6" fill-rule="nonzero" points="2 7 9 7 9 7.67116373 2 7.67116373"></polygon>
                <path d="M7.86937918,5.80182158 C10.2790026,5.73392463 12.2719701,7.57339584 12.1980283,9.81358891 C12.1300441,11.8706317 10.3423864,13.520546 8.12986633,13.5820955 C5.72104786,13.6499929 3.72788804,11.8099619 3.80199664,9.57032581 C3.86997781,7.51413657 5.65748188,5.86413281 7.86938047,5.80182155 Z" id="Path" stroke="#FFFFFF" stroke-width="0.4" fill="#FFFFFF"></path>
                <path d="M7.87501242,6.00174224 C5.76563742,6.06116531 4.06626242,7.62981916 4.00188742,9.57693454 C3.93173117,11.6971269 5.82673117,13.4469345 8.12423117,13.3821749 C10.2343874,13.323473 11.9337624,11.7548192 11.9981374,9.80698262 C12.0681374,7.68621339 10.1732937,5.93698262 7.87501242,6.00174224 Z M7.12126242,11.7624634 L6.41423117,11.1098192 L5.00001242,9.80424224 L5.70704367,9.151598 L7.12126242,10.4567422 L9.94938742,7.84616531 L10.6562624,8.49880954 L7.12126242,11.7624634 Z" id="Shape" fill="#4E8CEE" fill-rule="nonzero"></path>
            </g>
        </g>
    </g>
</svg>