<?xml version="1.0" encoding="UTF-8"?>
<svg width="14px" height="15px" viewBox="0 0 14 15" version="1.1" xmlns="http://www.w3.org/2000/svg" xmlns:xlink="http://www.w3.org/1999/xlink">
    <!-- Generator: Sketch 51 (57462) - http://www.bohemiancoding.com/sketch -->
    <title>yqrgj</title>
    <desc>Created with Sketch.</desc>
    <defs></defs>
    <g id="行业客户告警监控" stroke="none" stroke-width="1" fill="none" fill-rule="evenodd">
        <g id="状态标识" transform="translate(-101.000000, -270.000000)">
            <g id="已确认告警" transform="translate(100.000000, 270.000000)">
                <g id="Group" transform="translate(1.560000, 0.600000)">
                    <path d="M6.07671343,11.6358581 L0,11.6358581 L0,10.9568981 L1.39104,9.56585813 L1.39104,6.13793813 C1.39104,5.05601272 1.6615173,4.12314204 2.20248,3.33929813 C2.75448276,2.5333741 3.52175509,2.00897934 4.50432,1.76609813 L4.50432,1.28585813 C4.50432,0.99881669 4.60367901,0.753179146 4.8024,0.548938125 C5.00112099,0.344697104 5.24399856,0.242578125 5.53104,0.242578125 C5.81808144,0.242578125 6.06371898,0.344697104 6.26796,0.548938125 C6.47220102,0.753179146 6.57432,0.99881669 6.57432,1.28585813 L6.57432,1.76609813 C7.54584486,2.00897934 8.30759724,2.53889404 8.8596,3.35585813 C9.25523839,3.92913008 9.5061976,4.57916198 9.6124808,5.30596472 C9.43470796,5.28954139 9.25372095,5.28357394 9.07025703,5.28874348 C6.88090298,5.35041964 5.1170945,6.97855055 5.05027865,8.99949275 C5.01694951,10.0067328 5.41093754,10.9334338 6.07671343,11.6358581 Z M5.53104,13.7058581 C5.14463807,13.7058581 4.81620135,13.5733794 4.54572,13.3084181 C4.27523865,13.0434568 4.14,12.7233 4.14,12.3479381 L6.92208,12.3479381 C6.92208,12.7233 6.78408138,13.0434568 6.50808,13.3084181 C6.23207862,13.5733794 5.90640188,13.7058581 5.53104,13.7058581 Z" id="告警钟" fill="#A6C5F6"></path>
                    <path d="M9.08499605,5.72387897 C7.14437105,5.7785482 5.58094605,7.22170974 5.52172105,9.01305589 C5.4571773,10.9636328 7.2005773,12.5734559 9.3142773,12.513877 C11.255621,12.4598713 12.819046,11.0167097 12.878271,9.22470012 C12.942671,7.27359243 11.1994148,5.66430012 9.08499605,5.72387897 Z M8.39154605,11.0237424 L7.7410773,10.4233097 L6.43999605,9.22217897 L7.0904648,8.62174627 L8.39154605,9.82247897 L10.993421,7.4207482 L11.643746,8.02118089 L8.39154605,11.0237424 Z" id="Shape-Copy" fill="#4E8CEE" fill-rule="nonzero"></path>
                </g>
            </g>
        </g>
    </g>
</svg>