<?xml version="1.0" encoding="UTF-8"?>
<svg width="47px" height="47px" viewBox="0 0 47 47" version="1.1" xmlns="http://www.w3.org/2000/svg" xmlns:xlink="http://www.w3.org/1999/xlink">
    <!-- Generator: Sketch 51.1 (57501) - http://www.bohemiancoding.com/sketch -->
    <title>失败</title>
    <desc>Created with Sketch.</desc>
    <defs></defs>
    <g id="首页v0.3" stroke="none" stroke-width="1" fill="none" fill-rule="evenodd">
        <g id="故障管理-割接概览详情" transform="translate(-660.000000, -328.000000)" fill="#F27A7A" fill-rule="nonzero">
            <g id="失败" transform="translate(660.000000, 328.000000)">
                <path d="M32.8255666,14.5384429 C32.1076428,13.820519 30.9437223,13.820519 30.2257984,14.5384429 L23.6819796,21.0823624 L17.1381104,14.5384429 C16.4202873,13.820519 15.256266,13.820519 14.5384429,14.5384429 C13.820519,15.2563164 13.820519,16.4202369 14.5384429,17.1381104 L21.0822617,23.6820299 L14.5384429,30.2258991 C13.820519,30.9437726 13.820519,32.1076932 14.5384429,32.825617 C14.8973544,33.184579 15.3678156,33.3639844 15.8382767,33.3639844 C16.3087378,33.3639844 16.7791988,33.184579 17.1381104,32.825617 L23.6819796,26.2816975 L30.2258488,32.8255667 C30.5848107,33.1845286 31.0553221,33.3639341 31.5256825,33.3639341 C31.9961436,33.3639341 32.4666047,33.1845286 32.8255666,32.8255667 C33.5433898,32.1076429 33.5433898,30.9437223 32.8255666,30.2258488 L26.2816471,23.6819796 L32.8255666,17.1380601 C33.5433898,16.4202369 33.5433898,15.2563164 32.8255666,14.5384429 Z" id="Shape"></path>
                <path d="M40.0622391,6.87358675 C35.629799,2.44109105 29.7365029,0 23.4679407,0 C17.1994339,0 11.3061379,2.44109105 6.87364221,6.87358675 C2.44114651,11.3060824 0,17.1993785 0,23.4679407 C0,29.7364475 2.44114657,35.6297435 6.87364227,40.0622392 C11.306138,44.494846 17.199434,46.9358815 23.4679407,46.9358815 C29.736503,46.9358815 35.629799,44.494846 40.0622392,40.0622392 C44.494846,35.629688 46.9358815,29.736392 46.9358815,23.4679407 C46.9358259,17.1993785 44.4947904,11.3060824 40.0622391,6.87358675 Z M23.4679407,42.8796517 C12.7642725,42.8796517 4.05628529,34.1715534 4.05628529,23.4679407 C4.05628529,12.7642725 12.764328,4.05622982 23.4679407,4.05622982 C34.1715534,4.05622982 42.8795961,12.7642725 42.8795961,23.4679407 C42.8795961,34.1715534 34.1714978,42.8796517 23.4679407,42.8796517 Z" id="Shape"></path>
            </g>
        </g>
    </g>
</svg>